<svg width="178" height="60" viewBox="0 0 178 60" fill="none" xmlns="http://www.w3.org/2000/svg">
<rect x="1.2375" y="1.10539" width="175.524" height="57.5248" rx="8.11247" fill="black"/>
<rect x="1.2375" y="1.10539" width="175.524" height="57.5248" rx="8.11247" stroke="#A6A6A6" stroke-width="1.47499"/>
<path d="M36.9388 30.9934C36.9567 29.6365 37.3259 28.3061 38.012 27.126C38.698 25.9459 39.6787 24.9543 40.8628 24.2436C40.1106 23.1949 39.1183 22.3317 37.9646 21.7229C36.811 21.114 35.5278 20.7761 34.2171 20.736C31.421 20.4495 28.7103 22.3695 27.2854 22.3695C25.833 22.3695 23.6392 20.7645 21.2769 20.8119C19.7488 20.8601 18.2597 21.294 16.9544 22.0711C15.6492 22.8482 14.5724 23.9422 13.829 25.2465C10.6088 30.6898 13.0108 38.6896 16.0955 43.0896C17.6389 45.2442 19.4427 47.6508 21.8029 47.5655C24.1125 47.472 24.9751 46.1276 27.7629 46.1276C30.525 46.1276 31.3342 47.5655 33.7423 47.5112C36.2207 47.472 37.7821 45.3471 39.2714 43.1722C40.3803 41.637 41.2336 39.9403 41.7997 38.1449C40.3598 37.5503 39.1311 36.5551 38.2667 35.2834C37.4023 34.0117 36.9405 32.5197 36.9388 30.9934Z" fill="white"/>
<path d="M32.3912 17.8423C33.7425 16.2586 34.4082 14.223 34.247 12.1678C32.1825 12.3795 30.2756 13.3428 28.906 14.8658C28.2364 15.6098 27.7236 16.4753 27.3968 17.4129C27.0701 18.3506 26.9358 19.3419 27.0016 20.3302C28.0342 20.3405 29.0558 20.122 29.9893 19.6911C30.9229 19.2602 31.7441 18.628 32.3912 17.8423Z" fill="white"/>
<path d="M63.6814 18.4197H66.2514C68.4722 18.4197 69.5526 19.7402 69.5526 22.1356C69.5526 24.531 68.4613 25.8679 66.2514 25.8679H63.6814V18.4197ZM64.92 19.4619V24.8257H66.115C67.5883 24.8257 68.2812 23.9363 68.2812 22.152C68.2812 20.3568 67.5828 19.4619 66.115 19.4619H64.92ZM73.4704 20.0021C74.9764 20.0021 76.0295 20.9788 76.0295 22.5994V23.347C76.0295 25.0221 74.9764 25.9661 73.4704 25.9661C71.9426 25.9661 70.9004 25.033 70.9004 23.3524V22.6049C70.9004 21.028 71.9589 20.0021 73.4704 20.0021ZM73.4759 20.9788C72.6137 20.9788 72.1226 21.6991 72.1226 22.6649V23.3088C72.1226 24.2746 72.581 24.9894 73.4759 24.9894C74.3598 24.9894 74.8127 24.28 74.8127 23.3088V22.6649C74.8127 21.6991 74.338 20.9788 73.4759 20.9788ZM84.9236 20.1003L83.4067 25.8679H82.1736L80.9677 21.6118H80.9349L79.7509 25.8679H78.5122L76.9298 20.1003H78.2339L79.1616 24.4983H79.2161L80.3784 20.1003H81.5188L82.7138 24.4983H82.7683L83.7123 20.1003H84.9236ZM86.1241 25.8679V20.1003H87.3136V21.1371H87.3736C87.521 20.6842 87.9411 20.013 89.1088 20.013C90.271 20.013 91.0513 20.6569 91.0513 21.9719V25.8679H89.84V22.3266C89.84 21.4481 89.3816 21.0443 88.6996 21.0443C87.8047 21.0443 87.3354 21.7318 87.3354 22.6649V25.8679H86.1241ZM92.8847 25.8679V18.0269H94.0961V25.8679H92.8847ZM98.2539 20.0021C99.7599 20.0021 100.813 20.9788 100.813 22.5994V23.347C100.813 25.0221 99.7599 25.9661 98.2539 25.9661C96.7261 25.9661 95.6839 25.033 95.6839 23.3524V22.6049C95.6839 21.028 96.7425 20.0021 98.2539 20.0021ZM98.2594 20.9788C97.3973 20.9788 96.9062 21.6991 96.9062 22.6649V23.3088C96.9062 24.2746 97.3645 24.9894 98.2594 24.9894C99.1434 24.9894 99.5962 24.28 99.5962 23.3088V22.6649C99.5962 21.6991 99.1215 20.9788 98.2594 20.9788ZM103.951 25.9552C102.832 25.9552 102.063 25.2677 102.063 24.1927C102.063 23.1724 102.772 22.4848 104.103 22.4848H105.56V21.9446C105.56 21.2844 105.14 20.9734 104.474 20.9734C103.82 20.9734 103.525 21.2462 103.432 21.6282H102.281C102.352 20.6624 103.078 20.013 104.513 20.013C105.746 20.013 106.766 20.526 106.766 21.961V25.8679H105.615V25.1203H105.56C105.304 25.5623 104.802 25.9552 103.951 25.9552ZM104.327 25.0167C105.015 25.0167 105.56 24.5474 105.56 23.9199V23.2979H104.294C103.59 23.2979 103.279 23.6525 103.279 24.1327C103.279 24.7329 103.781 25.0167 104.327 25.0167ZM110.498 20.024C111.311 20.024 111.933 20.3841 112.157 20.9679H112.217V18.0269H113.429V25.8679H112.25V24.9457H112.19C112.015 25.5296 111.322 25.9443 110.482 25.9443C109.156 25.9443 108.294 25.0003 108.294 23.4779V22.4903C108.294 20.9679 109.172 20.024 110.498 20.024ZM110.837 21.017C110.029 21.017 109.527 21.6173 109.527 22.6649V23.2979C109.527 24.351 110.035 24.9512 110.864 24.9512C111.682 24.9512 112.217 24.3564 112.217 23.3743V22.5012C112.217 21.6118 111.633 21.017 110.837 21.017ZM120.08 20.0021C121.586 20.0021 122.639 20.9788 122.639 22.5994V23.347C122.639 25.0221 121.586 25.9661 120.08 25.9661C118.552 25.9661 117.51 25.033 117.51 23.3524V22.6049C117.51 21.028 118.569 20.0021 120.08 20.0021ZM120.085 20.9788C119.223 20.9788 118.732 21.6991 118.732 22.6649V23.3088C118.732 24.2746 119.191 24.9894 120.085 24.9894C120.969 24.9894 121.422 24.28 121.422 23.3088V22.6649C121.422 21.6991 120.948 20.9788 120.085 20.9788ZM124.2 25.8679V20.1003H125.389V21.1371H125.449C125.597 20.6842 126.017 20.013 127.184 20.013C128.347 20.013 129.127 20.6569 129.127 21.9719V25.8679H127.916V22.3266C127.916 21.4481 127.457 21.0443 126.775 21.0443C125.88 21.0443 125.411 21.7318 125.411 22.6649V25.8679H124.2ZM133.814 20.1385V18.698H134.998V20.1385H136.291V21.088H134.998V24.1491C134.998 24.7766 135.233 24.9512 135.882 24.9512C136.046 24.9512 136.264 24.9403 136.357 24.9294V25.857C136.259 25.8733 135.855 25.9061 135.582 25.9061C134.18 25.9061 133.798 25.4041 133.798 24.2473V21.088H132.919V20.1385H133.814ZM137.819 25.8679V18.0269H139.025V21.1371H139.085C139.211 20.7278 139.68 20.013 140.837 20.013C141.961 20.013 142.763 20.6624 142.763 21.9774V25.8679H141.557V22.3321C141.557 21.4536 141.071 21.0443 140.384 21.0443C139.516 21.0443 139.025 21.7264 139.025 22.6649V25.8679H137.819ZM146.828 25.9661C145.256 25.9661 144.28 25.0003 144.28 23.3743V22.594C144.28 20.957 145.349 20.0021 146.757 20.0021C148.203 20.0021 149.223 21.0061 149.223 22.594V23.2706H145.48V23.5543C145.48 24.3837 145.971 24.9948 146.822 24.9948C147.455 24.9948 147.892 24.6947 147.974 24.3346H149.158C149.087 25.0003 148.383 25.9661 146.828 25.9661ZM145.48 22.4794H148.039V22.403C148.039 21.5354 147.532 20.957 146.762 20.957C145.993 20.957 145.48 21.5354 145.48 22.403V22.4794Z" fill="white"/>
<path d="M65.4384 43.8679H62.9175L68.0466 28.9716H70.8185L75.9367 43.8679H73.3176L71.9971 39.7428H66.7698L65.4384 43.8679ZM69.4435 31.5471H69.3453L67.3264 37.8439H71.4406L69.4435 31.5471ZM82.8941 44.0316C81.399 44.0316 80.264 43.3222 79.6529 42.2637H79.5656V47.6984H77.1429V32.3328H79.5001V34.0243H79.5874C80.2204 32.9221 81.399 32.18 82.9487 32.18C85.535 32.18 87.3793 34.1334 87.3793 37.582V38.6078C87.3793 42.0345 85.5569 44.0316 82.8941 44.0316ZM82.3375 42.0345C83.8763 42.0345 84.9239 40.8013 84.9239 38.4768V37.6693C84.9239 35.4321 83.9417 34.1553 82.2939 34.1553C80.6023 34.1553 79.5438 35.5303 79.5438 37.6584V38.4768C79.5438 40.6595 80.6133 42.0345 82.3375 42.0345ZM95.2097 44.0316C93.7146 44.0316 92.5797 43.3222 91.9686 42.2637H91.8812V47.6984H89.4586V32.3328H91.8158V34.0243H91.9031C92.536 32.9221 93.7146 32.18 95.2643 32.18C97.8507 32.18 99.695 34.1334 99.695 37.582V38.6078C99.695 42.0345 97.8725 44.0316 95.2097 44.0316ZM94.6532 42.0345C96.1919 42.0345 97.2396 40.8013 97.2396 38.4768V37.6693C97.2396 35.4321 96.2574 34.1553 94.6095 34.1553C92.918 34.1553 91.8594 35.5303 91.8594 37.6584V38.4768C91.8594 40.6595 92.9289 42.0345 94.6532 42.0345ZM104.716 39.7318H107.138C107.247 41.0196 108.382 42.1218 110.489 42.1218C112.42 42.1218 113.566 41.216 113.566 39.8082C113.566 38.6733 112.802 38.0621 111.209 37.6802L108.764 37.0691C106.844 36.6216 105.119 35.4758 105.119 33.0531C105.119 30.2047 107.607 28.6442 110.499 28.6442C113.391 28.6442 115.803 30.2047 115.858 32.9876H113.479C113.37 31.7217 112.398 30.674 110.467 30.674C108.764 30.674 107.607 31.4816 107.607 32.8675C107.607 33.8388 108.284 34.5372 109.67 34.8537L112.104 35.4539C114.341 35.9996 116.043 37.0581 116.043 39.59C116.043 42.5147 113.675 44.1625 110.303 44.1625C106.156 44.1625 104.77 41.7398 104.716 39.7318ZM118.996 32.3328V29.5281H121.375V32.3328H123.623V34.2753H121.375V40.4303C121.375 41.6853 121.844 42.0345 123.142 42.0345C123.35 42.0345 123.546 42.0345 123.688 42.0127V43.8679C123.492 43.9006 123.033 43.9443 122.542 43.9443C119.738 43.9443 118.963 42.9403 118.963 40.6267V34.2753H117.369V32.3328H118.996ZM130.165 32.1364C133.483 32.1364 135.284 34.4718 135.284 37.6147V38.5423C135.284 41.7944 133.494 44.0643 130.165 44.0643C126.837 44.0643 125.025 41.7944 125.025 38.5423V37.6147C125.025 34.4827 126.848 32.1364 130.165 32.1364ZM130.165 34.0789C128.365 34.0789 127.47 35.5521 127.47 37.6475V38.5314C127.47 40.594 128.354 42.1109 130.165 42.1109C131.977 42.1109 132.85 40.6049 132.85 38.5314V37.6475C132.85 35.5412 131.966 34.0789 130.165 34.0789ZM137.33 43.8679V32.3328H139.753V33.8497H139.84C140.135 33.1294 140.997 32.1691 142.601 32.1691C142.917 32.1691 143.19 32.1909 143.419 32.2346V34.3735C143.212 34.319 142.787 34.2862 142.383 34.2862C140.44 34.2862 139.785 35.4867 139.785 37.0363V43.8679H137.33ZM149.296 44.0643C146.208 44.0643 144.244 42.0236 144.244 38.6078V37.4401C144.244 34.2208 146.164 32.1364 149.198 32.1364C152.276 32.1364 154.131 34.2971 154.131 37.5492V38.6515H146.634V38.9243C146.634 40.8668 147.681 42.1545 149.329 42.1545C150.562 42.1545 151.403 41.5434 151.697 40.5503H154C153.651 42.4165 152.145 44.0643 149.296 44.0643ZM146.634 36.9599H151.763V36.9381C151.763 35.3011 150.748 34.0134 149.209 34.0134C147.649 34.0134 146.634 35.3011 146.634 36.9381V36.9599Z" fill="white"/>
</svg>
