<svg width="37" height="37" viewBox="0 0 37 37" fill="none" xmlns="http://www.w3.org/2000/svg">
<path d="M15.9307 3.08068L15.9307 9.08793C15.9307 9.90265 15.2519 10.5628 14.4146 10.5628C11.4271 10.5628 9.80196 13.5441 9.57673 19.4283H14.4146C15.2519 19.4283 15.9307 20.0891 15.9307 20.9035L15.9307 33.5875C15.9307 34.4018 15.2519 35.0621 14.4146 35.0621H1.51581C0.678146 35.0621 0 34.4013 0 33.5875L0 20.9035C0 18.0827 0.291906 15.4942 0.867345 13.209C1.45752 10.8658 2.36344 8.81701 3.55916 7.11941C4.78953 5.37478 6.32855 4.00575 8.13384 3.05201C9.95131 2.0925 12.0648 1.60583 14.4151 1.60583C15.2519 1.60583 15.9307 2.26596 15.9307 3.08068ZM35.4838 10.5629C36.3207 10.5629 37 9.90213 37 9.08804V3.08078C37 2.26607 36.3208 1.60594 35.4838 1.60594C33.1344 1.60594 31.0206 2.09271 29.2038 3.05211C27.3982 4.00585 25.8583 5.37488 24.6277 7.11951C23.4324 8.81712 22.5265 10.866 21.9362 13.2097C21.3611 15.4956 21.0692 18.0842 21.0692 20.9036V33.5876C21.0692 34.4019 21.7482 35.0622 22.5853 35.0622L35.4837 35.0622C36.3206 35.0622 36.9993 34.4014 36.9993 33.5876L36.9993 20.9035C36.9993 20.0892 36.3207 19.4283 35.4837 19.4283H30.7148C30.9366 13.5442 32.538 10.5629 35.4838 10.5629Z" fill="#6D597A" fill-opacity="0.28"/>
</svg>
