<svg width="24" height="25" viewBox="0 0 24 25" fill="none" xmlns="http://www.w3.org/2000/svg">
<path d="M21.6376 10.4027H14.2501L11.9626 3.27771L9.6751 10.4027H2.2876L8.2876 14.7527L6.0001 21.8402L12.0001 17.4527L18.0001 21.8402L15.6376 14.7527L21.6376 10.4027Z" fill="#FAD97F"/>
<path d="M24 9.61521H14.85L12 0.84021L9.15 9.61521H0L7.3875 15.0152L4.5375 23.7902L12 18.3902L19.425 23.8277L16.575 15.0527L24 9.61521ZM12 17.4527L6 21.8402L8.2875 14.7527L2.2875 10.4027H9.675L11.9625 3.27771L14.25 10.4027H21.6375L15.6375 14.7527L18 21.8402L12 17.4527Z" fill="white"/>
</svg>
