<svg width="44" height="64" viewBox="0 0 44 64" fill="none" xmlns="http://www.w3.org/2000/svg">
<path d="M24.6542 26.7384C23.8997 26.2675 23.2702 25.692 22.7362 24.9842L22.8203 24.9456C27.4325 22.831 31.2366 18.9553 32.0713 15.5211C32.3821 14.2426 32.2451 13.0872 31.6752 12.1804C29.9863 9.49351 25.1462 10.4226 22.4921 11.6395C18.949 13.264 16.4278 15.9065 15.7477 18.7078C15.2798 20.6319 15.6395 22.5571 16.817 24.4298C16.9336 24.6153 17.0633 24.7972 17.2038 24.9729C13.19 25.8729 10.3436 25.0385 8.74229 22.4921C8.4721 22.0614 8.29068 21.7064 8.17133 21.3733C8.15548 21.331 8.14232 21.2858 8.12592 21.2302C8.04453 20.9583 7.87514 20.393 7.2617 20.3309C6.99295 20.3045 6.72772 20.4126 6.55227 20.6201C6.39214 20.8098 6.32739 21.0609 6.3748 21.3099C6.43255 21.6109 6.55279 21.88 6.67091 22.1446C6.70529 22.2213 6.73953 22.2977 6.77029 22.371C6.93763 22.7761 7.11177 23.1206 7.30263 23.4236C9.50368 26.9243 13.49 27.9676 18.8336 26.4429C19.9789 27.2344 21.2031 27.7332 21.9845 28.0021C16.0876 31.0777 12.457 34.9258 11.4763 39.1439C10.7965 42.0677 11.3784 45.1097 13.1587 47.9412C16.7022 53.5775 22.6648 54.1509 26.7052 52.2984C26.9075 52.2056 27.1126 52.1013 27.3195 51.9921L27.4964 52.1916C27.5632 52.267 27.6145 52.3248 27.631 52.3423C27.8399 52.5585 28.0536 52.7689 28.2702 52.9756C28.7076 53.3923 29.1911 53.8244 29.791 54.3356C29.8256 54.365 29.8627 54.3996 29.902 54.4371C30.0071 54.5358 30.1302 54.6485 30.2607 54.7355C30.5403 54.9217 30.8118 54.9655 31.0667 54.8657L31.1055 54.8499C31.3812 54.7235 31.5623 54.4349 31.5666 54.1149C31.5749 53.6078 31.1609 53.2892 30.9048 53.0926C30.8665 53.063 30.8303 53.0351 30.799 53.0086C30.5335 52.783 30.2693 52.5552 30.0091 52.3225C29.5116 51.8778 29.0888 51.471 28.7177 51.0796C34.0641 47.0318 36.1307 38.5316 32.9624 33.491C31.5769 31.2874 29.7616 30.6804 27.5669 31.6867C25.4684 32.6488 23.9356 34.7301 23.2512 37.5469C22.3146 41.4026 23.1287 45.8893 25.4294 49.5488C25.6005 49.8204 25.8245 50.1678 26.0821 50.5177C24.7415 51.1248 21.4166 52.0586 18.8856 48.0324C17.4226 45.7056 16.9878 42.5731 17.661 39.2121C18.5665 34.6924 21.2702 30.7322 24.8967 28.6091C26.5022 28.676 28.8176 28.4173 30.4133 27.6857C31.1018 27.37 31.484 26.6915 31.6019 26.2064C31.6937 25.8277 31.656 25.4786 31.496 25.2237C31.2877 24.8933 30.8011 24.1217 24.6542 26.7384ZM22.2119 23.8762L22.0702 23.9412C21.4128 22.3187 21.3545 20.4462 21.9087 18.6512C22.6335 16.3037 24.3359 14.3673 26.5791 13.3388C27.973 12.6997 29.8102 12.5861 30.4695 13.6342C30.8018 14.1625 30.8703 14.8413 30.6734 15.6519C29.9849 18.4849 26.4265 21.9439 22.2119 23.8762ZM25.2563 38.7075C25.8245 36.3703 27.056 34.6621 28.7241 33.8973C29.9919 33.316 30.8625 33.5924 31.6346 34.8209C32.7742 36.6336 33.1412 39.1414 32.6686 41.8825C32.077 45.3093 30.2216 48.4959 27.8122 50.2381C27.6097 49.9602 27.4033 49.6535 27.1843 49.3046C25.1507 46.07 24.43 42.1085 25.2563 38.7075Z" fill="#0F0F0F"/>
<path d="M22 63.334C9.86908 63.334 0 53.5215 0 41.46V22.2083C0 10.1469 9.86908 0.333984 22 0.333984C34.1309 0.333984 44 10.1469 44 22.2083V41.46C44 53.5215 34.1309 63.334 22 63.334ZM22 1.6712C10.6109 1.6712 1.34492 10.8841 1.34492 22.2083V41.46C1.34492 52.7839 10.6109 61.9968 22 61.9968C33.3891 61.9968 42.6551 52.7839 42.6551 41.46V22.2083C42.6551 10.8841 33.3891 1.6712 22 1.6712Z" fill="#0F0F0F"/>
</svg>
