<svg xmlns="http://www.w3.org/2000/svg" width="135" height="25" viewBox="0 0 135 25" fill="none">
  <path d="M80.6809 7.61922C80.4062 7.23241 80.2205 6.82322 80.115 6.37213H80.1673C83.0332 6.37213 85.9035 5.36279 87.1473 3.91778C87.6104 3.37985 87.8148 2.80301 87.7383 2.24985C87.5114 0.610861 84.8105 0 83.1613 0C80.9597 0 79.0398 0.7039 78.0256 1.88277C77.3286 2.6923 77.0554 3.68208 77.2137 4.82449C77.2294 4.93764 77.2526 5.05191 77.2829 5.16563C75.0122 4.72036 73.752 3.70727 73.5366 2.1538C73.5005 1.89123 73.492 1.68372 73.5099 1.50009C73.5119 1.47659 73.5159 1.45235 73.5207 1.42246C73.5436 1.27604 73.5912 0.971551 73.2916 0.808968C73.1601 0.738108 72.9986 0.731717 72.8593 0.791864C72.7322 0.846935 72.6393 0.951815 72.6045 1.08C72.5625 1.23507 72.5602 1.38863 72.5578 1.53956C72.5572 1.58335 72.5566 1.62696 72.555 1.66831C72.5444 1.89649 72.5518 2.09741 72.5776 2.28236C72.8735 4.41793 74.6682 5.77743 77.7686 6.21556C78.1674 6.83901 78.6761 7.34104 79.0126 7.63802C75.2601 7.81413 72.4852 8.84809 70.9803 10.6326C69.9371 11.8695 69.5123 13.4363 69.7517 15.1636C70.2279 18.6019 73.147 20.168 75.6575 20.168C75.7832 20.168 75.9131 20.1631 76.0451 20.1563L76.0883 20.2892C76.1046 20.3394 76.1172 20.3779 76.1215 20.3898C76.1771 20.5375 76.2366 20.6836 76.2985 20.8285C76.4236 21.1208 76.5686 21.4303 76.7546 21.8027C76.7653 21.8241 76.7761 21.8485 76.7873 21.8748C76.8177 21.9444 76.854 22.0245 76.9002 22.094C76.9992 22.2429 77.1279 22.3225 77.2822 22.3306L77.3059 22.3316C77.4772 22.3316 77.6386 22.2342 77.7168 22.0837C77.8416 21.8453 77.7052 21.6046 77.6207 21.4559C77.6081 21.4335 77.5961 21.4125 77.5864 21.3931C77.504 21.2286 77.4228 21.0634 77.3447 20.8967C77.1955 20.5781 77.0755 20.2937 76.9784 20.0278C80.6799 19.2718 83.7589 15.6954 83.3334 12.6206C83.1471 11.2763 82.3612 10.5948 80.9975 10.5948C79.6935 10.5948 78.4135 11.2475 77.3933 12.4328C75.9971 14.0553 75.348 16.3566 75.6572 18.589C75.6803 18.7547 75.7126 18.9679 75.7614 19.1895C74.9302 19.1859 73.0046 18.9062 72.6645 16.4502C72.4678 15.0308 72.9894 13.453 74.1331 12.0076C75.6712 10.064 77.9978 8.77572 80.3606 8.55769C81.1674 8.93793 82.4153 9.31817 83.4068 9.31817C83.8346 9.31817 84.1917 9.07984 84.3674 8.87572C84.5045 8.71633 84.5681 8.54284 84.5467 8.3874C84.5185 8.18572 84.4525 7.7147 80.6809 7.61922ZM80.1097 5.73363H80.0216C80.0703 4.82261 80.4855 3.92323 81.196 3.19358C82.1253 2.23932 83.4578 1.69199 84.8517 1.69199C85.7178 1.69199 86.6862 2.03708 86.775 2.67651C86.8197 2.99886 86.6935 3.33511 86.3999 3.67625C85.3738 4.86828 82.7285 5.73363 80.1097 5.73363ZM78.145 13.4177C78.9916 12.4343 80.0286 11.8928 81.0651 11.8928C81.8529 11.8928 82.2332 12.2127 82.3369 12.9621C82.4901 14.0678 82.0822 15.3351 81.1885 16.5305C80.071 18.0247 78.363 19.1308 76.7144 19.4327C76.6767 19.2572 76.6438 19.0671 76.6145 18.8544C76.3412 16.8812 76.9133 14.8488 78.145 13.4177Z" fill="#595959"/>
  <path d="M10.549 13.7711C10.3626 13.7711 10.1231 13.8406 10.0392 14.174L9.66436 15.9495C9.47494 16.8359 9.18855 17.517 8.81328 17.974C8.43914 18.4292 8.01887 18.7422 7.56403 18.9044C7.1051 19.0681 6.65364 19.1511 6.22232 19.1511C5.64669 19.1511 5.16321 19.0136 4.78528 18.7423C4.41298 18.4756 4.22417 18.0311 4.22417 17.4212V2.57971C4.22417 2.22729 4.28135 1.98389 4.39406 1.85664C4.50545 1.73052 4.75552 1.64124 5.13784 1.59106L5.91916 1.48449C6.23459 1.43205 6.30087 1.25837 6.30087 1.12192C6.30087 0.976062 6.23439 0.731529 5.78968 0.731529H0.511197C0.0664822 0.731529 0 0.959522 0 1.09541C0 1.23037 0.0756874 1.40742 0.440112 1.48449L1.10227 1.59049C1.48695 1.65778 1.73948 1.74857 1.8526 1.86021C1.96317 1.96979 2.01922 2.20305 2.01922 2.55321V18.1366C2.01922 18.573 1.9286 18.7544 1.8527 18.8296C1.73958 18.9414 1.48715 19.0322 1.1035 19.0991L0.436021 19.206C0.0756874 19.2823 0 19.4594 0 19.5944C0 19.7603 0.088677 19.958 0.511197 19.958H9.8279C10.3086 19.958 10.585 19.7244 10.6273 19.2808L10.9731 14.302C10.9969 14.1163 10.9646 13.9765 10.8775 13.8865C10.8034 13.8098 10.6928 13.7711 10.549 13.7711Z" fill="#595959"/>
  <path d="M20.4663 15.3805C20.4049 15.3149 20.3184 15.2819 20.2089 15.2819C20.0501 15.2819 19.843 15.3416 19.7576 15.6288C19.4736 16.7421 19.1011 17.5432 18.6505 18.0095C18.2066 18.4681 17.6246 18.7006 16.9208 18.7006C16.0315 18.7006 15.2876 18.2399 14.7098 17.3315C14.1237 16.4109 13.8264 15.0056 13.8264 13.1544C13.8264 12.7877 13.9848 12.6168 14.3248 12.6168H19.8051C20.1699 12.6168 20.6048 12.4525 20.6048 11.6699C20.6048 9.73731 20.2452 8.31842 19.5361 7.45232C18.8214 6.58019 17.8736 6.13812 16.7188 6.13812C15.7621 6.13812 14.8814 6.44712 14.101 7.05648C13.3249 7.66283 12.7059 8.51089 12.2613 9.57698C11.8176 10.6399 11.5925 11.8881 11.5925 13.2867C11.5925 14.6496 11.8127 15.8666 12.2468 16.9036C12.6824 17.9445 13.2772 18.7613 14.0145 19.3316C14.7562 19.9056 15.6078 20.1966 16.5458 20.1966C17.5243 20.1966 18.368 19.8729 19.0536 19.2344C19.7345 18.5999 20.2366 17.477 20.5463 15.8948C20.5864 15.6489 20.5602 15.4807 20.4663 15.3805ZM13.8838 11.465C14.0356 10.0161 14.3669 8.88474 14.8684 8.10246C15.3601 7.33447 15.973 6.94521 16.69 6.94521C17.2761 6.94521 17.7053 7.25176 18.0024 7.88217C18.3044 8.5248 18.4575 9.42474 18.4575 10.5568C18.4575 11.4 18.0304 11.8097 17.1515 11.8097H14.2383C14.0945 11.8097 13.9934 11.7804 13.9378 11.7225C13.886 11.6684 13.8678 11.5825 13.8838 11.465Z" fill="#595959"/>
  <path d="M60.8993 7.08336C60.109 6.45614 59.2038 6.13812 58.2087 6.13812C57.2328 6.13812 56.3326 6.45614 55.533 7.08317C54.7388 7.70606 54.1006 8.55356 53.6364 9.60217C53.1731 10.6485 52.9382 11.8437 52.9382 13.1544C52.9382 14.4646 53.173 15.6685 53.6362 16.7325C54.1003 17.7984 54.7336 18.6506 55.5186 19.2651C56.3085 19.8832 57.2136 20.1966 58.2087 20.1966C59.2033 20.1966 60.1132 19.8832 60.913 19.2654C61.7078 18.6504 62.3413 17.7982 62.7959 16.732C63.2493 15.6674 63.4792 14.4637 63.4792 13.1544C63.4792 11.8437 63.2444 10.6487 62.7812 9.60217C62.3173 8.55431 61.6842 7.70681 60.8993 7.08336ZM58.2087 19.3895C56.2704 19.3895 55.2876 17.2917 55.2876 13.1544C55.2876 9.03435 56.2704 6.94521 58.2087 6.94521C60.1471 6.94521 61.13 9.03435 61.13 13.1544C61.13 17.2917 60.1471 19.3895 58.2087 19.3895Z" fill="#595959"/>
  <path d="M133.947 7.52036C133.243 6.60312 132.27 6.13812 131.056 6.13812C130.219 6.13812 129.374 6.38716 128.548 6.87867C127.726 7.36698 126.972 8.03724 126.306 8.87102C125.641 9.70423 125.098 10.6647 124.694 11.7257C124.289 12.7886 124.084 13.9113 124.084 15.0625C124.084 16.6254 124.438 17.883 125.137 18.8008C125.841 19.7269 126.813 20.1966 128.028 20.1966C128.866 20.1966 129.71 19.9475 130.537 19.456C131.358 18.9681 132.112 18.2978 132.778 17.4639C133.443 16.6318 133.985 15.6713 134.39 14.6092C134.795 13.5463 135 12.4236 135 11.2725C135 9.6922 134.646 8.42988 133.947 7.52036ZM132.881 10.1595C132.881 11.262 132.737 12.3755 132.451 13.4686C132.166 14.5618 131.779 15.5689 131.303 16.4617C130.828 17.3518 130.294 18.0768 129.717 18.616C129.148 19.147 128.561 19.4162 127.97 19.4162C126.797 19.4162 126.203 18.317 126.203 16.1491C126.203 15.0469 126.348 13.9335 126.633 12.8397C126.919 11.7441 127.301 10.7369 127.767 9.84595C128.231 8.95729 128.765 8.23741 129.352 7.70643C129.93 7.18372 130.513 6.9187 131.085 6.9187C132.277 6.9187 132.881 8.00904 132.881 10.1595Z" fill="#595959"/>
  <path d="M29.8238 17.8116C29.0042 17.1748 27.8808 16.8519 26.4847 16.8519H25.259C25.1977 16.8519 25.1049 16.8575 24.9941 16.8643C24.6148 16.8876 23.8253 16.9355 23.7363 16.718C23.6967 16.6233 23.7232 16.4991 23.8055 16.3993C23.8873 16.2927 24.0114 16.2194 24.1379 16.1542L24.1572 16.1457C24.4274 16.0074 24.7231 15.9143 25.0366 15.869C25.1579 15.8512 25.2339 15.8542 25.339 15.8581C25.4877 15.8645 25.6729 15.8717 26.0709 15.8236C26.7525 15.7412 27.2322 15.5792 27.7817 15.2461C28.4341 14.8552 28.9575 14.3118 29.3369 13.631C29.7163 12.957 29.9087 12.1783 29.9087 11.3162C29.9087 10.6192 29.7834 9.30557 29.5145 8.6996C29.496 8.65787 29.477 8.61633 29.4572 8.57517C29.3422 8.33421 29.2072 8.10641 29.0562 7.89759C28.9386 7.73519 28.8068 7.58727 28.682 7.44968C28.6687 7.43502 28.6504 7.41491 28.6481 7.40175C28.6457 7.38822 28.663 7.36717 28.6849 7.35665C28.7352 7.33259 28.8125 7.32281 28.8809 7.31435L28.9257 7.30853C29.0361 7.2933 30.4863 7.15234 30.7206 7.1358C31.1357 7.10685 31.1977 6.89784 31.1977 6.77586C31.1977 6.59805 31.1094 6.38603 30.6882 6.38603H27.0796C27.0342 6.38603 26.9798 6.3757 26.9141 6.35446C26.4839 6.21048 26.0289 6.13737 25.5619 6.13737C24.745 6.13737 23.9934 6.33735 23.3282 6.73169C22.6617 7.12753 22.1289 7.66283 21.7449 8.32237C21.3402 9.00465 21.1581 10.4226 21.1581 11.2115C21.1581 12.0719 21.3942 12.8869 21.8596 13.6337C22.326 14.3844 22.9678 14.9471 23.7676 15.3061C23.862 15.3484 23.9132 15.3922 23.9117 15.43C23.9051 15.5969 23.2471 15.838 22.9661 15.9412C22.8339 15.9897 22.7382 16.0247 22.6923 16.0504C22.4182 16.203 22.0588 16.4718 21.9035 16.8838C21.7561 17.2753 21.8531 17.7073 22.145 17.9589C22.2059 18.011 22.2805 18.0602 22.3595 18.1125C22.5623 18.2463 22.7721 18.3847 22.7721 18.5803C22.7721 18.7284 22.6645 18.8935 22.4532 19.0698C21.8119 19.5883 21.3192 20.0278 20.9884 20.3763C20.661 20.7243 20.4534 21.0223 20.3537 21.2869C20.2539 21.5517 20.2033 21.8495 20.2033 22.1716C20.2033 22.9548 20.6426 23.6302 21.5089 24.1786C22.3611 24.7237 23.5401 25 25.0132 25C26.1376 25 27.1631 24.8017 28.061 24.4104C28.9654 24.0164 29.6981 23.4747 30.2391 22.8001C30.7857 22.1149 31.063 21.3239 31.063 20.4496C31.063 19.3382 30.646 18.4506 29.8238 17.8116ZM24.6909 7.10027C24.9382 6.9437 25.2216 6.86439 25.5334 6.86439C26.1799 6.86439 26.6898 7.19463 27.0925 7.87409C27.1595 7.98762 27.2216 8.12577 27.2724 8.27538C27.5698 9.0851 27.703 10.3598 27.703 11.2639C27.703 12.4352 27.5023 13.3686 27.1068 14.0383L27.1066 14.0387C26.7212 14.6998 26.1919 15.0349 25.5334 15.0349C24.8667 15.0349 24.3509 14.709 23.9566 14.0385C23.5609 13.3628 23.3603 12.4292 23.3603 11.2639C23.3603 10.0922 23.5711 8.55149 23.9745 7.87372C24.1753 7.52975 24.4159 7.26981 24.6909 7.10027ZM29.0604 21.0322C29.0604 21.6557 28.8942 22.2179 28.566 22.7035C28.241 23.1926 27.7908 23.5815 27.228 23.8591C26.6651 24.1337 26.0362 24.273 25.3588 24.273C24.3289 24.273 23.5168 24.039 22.9454 23.5774C22.3791 23.117 22.0919 22.502 22.0919 21.7493C22.0919 21.392 22.168 21.0352 22.318 20.689C22.4675 20.3437 22.841 19.8791 23.4284 19.3072C23.6872 19.0502 23.9636 18.8692 24.2502 18.769L24.2513 18.7687C24.5335 18.6655 24.9744 18.6132 25.5619 18.6132H26.2246C27.1237 18.6132 27.8285 18.826 28.3197 19.2455C28.8111 19.6624 29.0604 20.2635 29.0604 21.0322Z" fill="#595959"/>
  <path d="M89.6297 15.9553C89.562 15.947 89.4936 15.9557 89.4329 15.9799C89.226 16.0585 89.149 16.2506 89.1098 16.3859C89.0912 16.4423 89.0739 16.4983 89.0565 16.5541C89.0213 16.6673 88.985 16.7844 88.9401 16.8994C88.6656 17.5958 88.2123 18.5234 87.4498 18.5409C87.4134 18.5409 87.3803 18.5378 87.3394 18.5345C87.3113 18.5345 87.2802 18.5286 87.2553 18.5236L87.186 18.5066C87.1392 18.4901 87.1062 18.4753 87.072 18.4553C86.9853 18.41 86.9186 18.3429 86.8675 18.249C86.7517 18.0454 86.7397 17.7548 86.8318 17.3853L89.0192 8.62198L89.2544 7.68576C89.2643 7.64629 89.2776 7.60983 89.2905 7.57694C89.3093 7.53126 89.3316 7.48935 89.359 7.44819C89.4759 7.27132 89.6719 7.18523 89.9581 7.18523H91.515C92.0805 7.18523 92.1992 6.92886 92.1992 6.71365C92.1992 6.52381 92.1009 6.2977 91.6326 6.2977H89.9866C89.8743 6.2977 89.7957 6.27571 89.753 6.2321C89.7137 6.19226 89.6988 6.1276 89.7074 6.04678L89.7124 6.01633C89.7124 6.00731 89.7155 5.99622 89.7176 5.98626L90.3954 3.22272C90.3997 3.19923 90.4036 3.17197 90.4035 3.15336C90.4133 3.01277 90.3884 2.90131 90.3278 2.81297C90.2601 2.71185 90.1404 2.64156 90.0097 2.62558C89.8488 2.60133 89.7161 2.6346 89.6139 2.72426C89.5139 2.81636 89.4811 2.92688 89.4539 3.04115C89.3704 3.38493 89.2556 3.71423 89.1125 4.02079C88.9303 4.41963 88.6968 4.77807 88.419 5.0865C88.1898 5.34175 87.922 5.56617 87.6236 5.75319C87.3784 5.90355 87.1201 6.02535 86.856 6.11557C86.551 6.22007 86.2361 6.28248 85.9203 6.30108C85.7839 6.30841 85.6727 6.34356 85.5588 6.41574C85.5269 6.4366 85.4992 6.46216 85.4676 6.50276C85.4514 6.52306 85.433 6.54599 85.4228 6.57174C85.3938 6.62869 85.3797 6.69335 85.3797 6.76928C85.3797 6.8362 85.3905 6.89653 85.414 6.95668C85.46 7.06099 85.5748 7.18523 85.8609 7.18523H86.9582C87.0758 7.18523 87.1565 7.20892 87.1982 7.25553C87.241 7.30346 87.2506 7.3839 87.2274 7.49254L84.8326 17.0898L84.8272 17.1146C84.8181 17.156 84.8095 17.1953 84.8039 17.2315L84.7912 17.2947C84.7704 17.3971 84.7506 17.4954 84.7356 17.5915C84.7151 17.724 84.7024 17.8321 84.6961 17.9291C84.6814 18.0794 84.6777 18.2238 84.685 18.3544C84.685 18.4099 84.6888 18.4653 84.6961 18.5189C84.7034 18.586 84.7108 18.6497 84.7206 18.6982C84.7206 18.7093 84.7206 18.7247 84.7258 18.741C84.7337 18.7967 84.7479 18.8465 84.763 18.8991C84.7777 18.9493 84.7925 18.9997 84.8145 19.0587L84.8208 19.0779C84.8312 19.1062 84.8448 19.1348 84.8586 19.1632L84.8763 19.2008C84.8959 19.2438 84.9192 19.2833 84.9454 19.3226L84.9474 19.3269C84.9514 19.3446 84.9601 19.357 84.9644 19.363C84.9672 19.3679 84.971 19.3739 84.9755 19.3801L84.986 19.3951C85.0199 19.4436 85.0539 19.4919 85.0866 19.5273C85.1174 19.5697 85.1565 19.6132 85.1952 19.6483C85.2364 19.6932 85.2814 19.7346 85.3314 19.7769C85.3622 19.802 85.3962 19.8272 85.4398 19.8594C85.6609 20.0107 85.9125 20.1131 86.1909 20.1641L86.332 20.184C86.4113 20.1932 86.5031 20.1977 86.6126 20.1977C86.6763 20.1977 86.7718 20.1958 86.8619 20.1808C86.9426 20.1706 87.0197 20.1571 87.1019 20.14C88.2901 19.8686 88.9307 18.8547 89.3562 18.0014C89.5602 17.5879 89.7876 17.0957 89.9274 16.578C89.9712 16.4173 90.0018 16.2346 89.8993 16.0991C89.8418 16.0175 89.7397 15.9638 89.6297 15.9553Z" fill="#595959"/>
  <path d="M111.656 8.74584C111.897 8.4701 112.019 8.09795 112.019 7.6399C112.019 7.18109 111.881 6.81307 111.609 6.54655C111.333 6.27495 110.92 6.13737 110.383 6.13737C109.593 6.13737 108.884 6.44938 108.277 7.06437C107.676 7.66903 107.002 8.75373 106.273 10.2863C106.247 10.335 106.206 10.3888 106.165 10.3826C106.152 10.3794 106.115 10.3702 106.131 10.2557L106.452 9.00841C106.705 8.00585 106.691 7.27131 106.412 6.82548C106.132 6.36893 105.653 6.13737 104.989 6.13737C104.652 6.13737 104.284 6.23492 103.899 6.42513C103.899 6.42513 103.855 6.44299 103.781 6.48809C103.765 6.4973 103.748 6.50689 103.742 6.51234C103.704 6.52625 103.665 6.54655 103.622 6.57399C103.437 6.68075 103.257 6.8157 103.07 6.98675L103.051 7.00423C102.773 7.24162 102.484 7.58483 102.169 8.05397C101.758 8.66671 101.468 9.27738 101.161 9.92414L101.096 10.0608C100.076 12.0095 98.6534 14.7802 98.0455 15.9638C97.7879 16.4737 97.4767 16.9528 97.1168 17.393C97.1011 17.4161 97.082 17.436 97.0631 17.4563C97.0521 17.4682 97.0427 17.48 97.0339 17.4911C97.027 17.4998 97.021 17.5078 97.0138 17.5144L96.9991 17.53C96.9838 17.5466 96.9704 17.561 96.9528 17.5776C96.8901 17.6445 96.8239 17.7054 96.7577 17.7661C96.0909 18.3694 95.3962 18.6752 94.693 18.6752C94.0623 18.6752 93.579 18.4341 93.2154 17.9377C92.8508 17.4415 92.6659 16.6885 92.6659 15.6997V15.3132C92.6659 15.1691 92.6747 15.051 92.6943 14.9338C92.7104 14.615 92.9072 14.4205 93.2957 14.3394C94.7539 14.0389 96.0481 13.5722 97.1428 12.9521C98.2298 12.3332 99.0909 11.6173 99.7022 10.8245C100.315 10.03 100.625 9.21742 100.625 8.40939C100.625 7.72279 100.419 7.16662 100.013 6.75669C99.6066 6.34562 98.9326 6.13737 98.0099 6.13737C97.1742 6.13737 96.2996 6.42701 95.4101 6.99821C94.5307 7.56904 93.7142 8.33365 92.9832 9.2708C92.2511 10.2093 91.6508 11.2669 91.1988 12.4148C90.7466 13.5722 90.5173 14.7479 90.5173 15.9091C90.5173 17.265 90.8332 18.3285 91.4563 19.0698C92.0856 19.8182 92.9312 20.1977 93.9698 20.1977C95.0231 20.1977 96.0077 19.7887 96.8966 18.982C98.0898 17.8971 98.8189 16.4718 99.5238 15.0933C99.6188 14.9074 99.7134 14.7225 99.809 14.5389C100.106 13.9609 101.085 11.9556 101.407 11.2966C101.47 11.1669 101.509 11.0885 101.513 11.0799C101.587 10.9239 101.659 10.766 101.731 10.6077C102.072 9.8623 102.424 9.0913 102.987 8.46841C103.414 7.99702 103.609 7.88518 103.88 7.81958L103.903 7.81846L103.912 7.81056C103.964 7.7991 104.012 7.79402 104.067 7.79402C104.318 7.79402 104.468 7.88499 104.525 8.07088C104.586 8.28327 104.571 8.57893 104.478 8.94902L101.738 19.5267C101.705 19.6603 101.721 19.7661 101.787 19.8413C101.854 19.9193 101.971 19.9588 102.132 19.9588H103.315C103.564 19.9588 103.73 19.8396 103.798 19.6109C104.157 18.1413 104.588 16.6806 105.079 15.2698C105.567 13.8647 106.08 12.5781 106.604 11.4458C107.129 10.3123 107.627 9.40162 108.084 8.73945C108.638 7.93649 108.966 7.7679 109.144 7.7679C109.286 7.7679 109.383 7.82203 109.447 7.93612C109.528 8.09344 109.6 8.25602 109.661 8.41898C109.732 8.61615 109.839 8.78963 109.978 8.93417C110.126 9.09224 110.369 9.17231 110.701 9.17231C111.087 9.17231 111.409 9.0289 111.656 8.74584ZM97.8069 6.94615C98.3941 6.94615 98.6796 7.28654 98.6796 7.98705C98.6796 8.69678 98.4738 9.43489 98.0679 10.1807C97.6608 10.929 97.0516 11.6116 96.2572 12.2099C95.4594 12.8104 94.4599 13.2649 93.2851 13.5613C93.178 13.5902 93.0973 13.575 93.0312 13.5141C92.9652 13.4534 92.9489 13.3794 92.9799 13.2809L92.9809 13.2775C93.2695 12.1646 93.6938 11.1184 94.2422 10.1681C94.7943 9.20878 95.401 8.42048 96.0453 7.82541C96.6802 7.24199 97.2728 6.94615 97.8069 6.94615Z" fill="#595959"/>
  <path d="M41.0495 16.6233C40.9222 16.6233 40.819 16.6592 40.7427 16.7303C40.6444 16.8216 40.596 16.9671 40.5984 17.1627L40.5999 17.2515C40.6048 17.5189 40.61 17.7952 40.4807 18.033C40.3525 18.2685 40.1374 18.4091 39.9055 18.4091C39.5558 18.4091 39.3784 18.0587 39.3784 17.368V9.25821C39.3784 7.18786 38.3912 6.13812 36.4443 6.13812C35.8215 6.13812 35.1898 6.26499 34.5668 6.51535C33.9471 6.76477 33.3678 7.10309 32.8448 7.52092C32.3216 7.9395 31.8939 8.40921 31.5738 8.91744C31.251 9.42963 31.0873 9.95459 31.0873 10.4775C31.0873 11.0102 31.3937 11.2917 31.9734 11.2917C32.3187 11.2917 32.6614 11.1564 32.9916 10.8895C33.3212 10.6235 33.5385 10.1944 33.6373 9.61495C33.807 8.6964 34.0867 8.03555 34.4689 7.65042C34.8453 7.27037 35.2674 7.07753 35.7231 7.07753C36.2007 7.07753 36.5668 7.24575 36.8424 7.59159C37.1193 7.9395 37.2599 8.53589 37.2599 9.3644V11.7761C37.2599 11.9749 37.1583 12.0962 36.9396 12.1578C35.7849 12.4941 34.7399 12.9427 33.8338 13.4914C32.9262 14.0417 32.2009 14.6676 31.6783 15.3523C31.1521 16.0418 30.8854 16.7825 30.8854 17.5535C30.8854 18.3474 31.1553 18.9935 31.6876 19.4735C32.2196 19.9534 32.9077 20.1966 33.7328 20.1966C34.4569 20.1966 35.0734 20.0409 35.5654 19.7336C36.0516 19.4295 36.5337 18.9779 36.999 18.3899C37.116 18.2365 37.2335 18.1644 37.3475 18.1689C37.4173 18.1732 37.5 18.2014 37.5207 18.3882C37.6185 18.8741 37.8074 19.2985 38.0821 19.6496C38.3656 20.0126 38.7559 20.1966 39.2421 20.1966C40.0587 20.1966 40.6947 19.8658 41.0814 19.2399C41.475 18.6025 41.4746 17.9283 41.4742 17.2146V17.146C41.4742 16.7139 41.2433 16.6233 41.0495 16.6233ZM37.2599 13.3132V15.2478C37.2599 15.9235 37.1264 16.5376 36.863 17.0733C36.5995 17.609 36.2572 18.0418 35.8457 18.3598C35.4395 18.6737 34.9906 18.8329 34.5117 18.8329C33.5747 18.8329 33.1192 18.2584 33.1192 17.0765C33.1192 16.1448 33.4379 15.336 34.0663 14.6725C34.6988 14.0047 35.6049 13.472 36.7606 13.0892C36.8707 13.0506 36.9641 13.0313 37.0381 13.0313C37.0914 13.0313 37.1347 13.0414 37.1666 13.0615C37.2285 13.1008 37.2599 13.1854 37.2599 13.3132Z" fill="#595959"/>
  <path d="M52.9228 16.6226H52.9066C52.7406 16.6263 52.4631 16.7017 52.4702 17.1637L52.4718 17.2618C52.4768 17.5255 52.482 17.7984 52.354 18.0337C52.2409 18.2382 52.0657 18.3721 51.863 18.4027C51.8503 18.4048 51.8388 18.4068 51.8068 18.4089C51.8016 18.41 51.7869 18.41 51.7792 18.41C51.6742 18.41 51.5854 18.38 51.514 18.32C51.4363 18.2572 51.3759 18.1585 51.3343 18.0262C51.3064 17.9396 51.2863 17.8452 51.2729 17.7371C51.2591 17.6293 51.252 17.5056 51.252 17.3691V0.696757C51.252 0.28795 51.0369 0.202242 50.8564 0.202242C50.6852 0.202242 50.4454 0.292649 50.1246 0.477787C49.8691 0.619883 49.5563 0.760287 49.1942 0.895428C48.8389 1.03226 48.3591 1.15274 47.7284 1.26401C47.4102 1.31777 47.3433 1.50497 47.3433 1.65252C47.3433 1.80025 47.4102 1.98746 47.7336 2.04197L48.4845 2.12072C48.7343 2.13877 48.9002 2.19948 48.9912 2.3053C49.0845 2.41769 49.1319 2.62539 49.1319 2.92273V6.31743C49.1319 6.38209 49.1217 6.46479 49.0732 6.49204C49.0446 6.50821 48.9692 6.5223 48.7834 6.43509C48.5252 6.32664 48.2562 6.24995 47.9851 6.20729C47.916 6.19526 47.8471 6.18586 47.7808 6.17665L47.7596 6.17383C47.5527 6.14958 47.3528 6.13737 47.1653 6.13737C46.0347 6.13737 45.009 6.46404 44.1173 7.10835C43.2264 7.74609 42.5193 8.64265 42.0157 9.77321C41.513 10.897 41.2581 12.2212 41.2581 13.7092C41.2581 14.9858 41.4442 16.1228 41.8111 17.0885C42.1808 18.058 42.7072 18.8258 43.3751 19.3703C43.5389 19.5073 43.7121 19.6259 43.8866 19.7207L43.943 19.753C44.4119 20.0481 44.971 20.1977 45.6049 20.1977H45.6939C46.3398 20.1977 46.8966 20.0686 47.3483 19.8141C47.6036 19.6735 47.8692 19.4637 48.159 19.1739L48.1817 19.1495C48.4128 18.9316 48.6387 18.6831 48.8721 18.3895C48.9886 18.2373 49.1059 18.1632 49.2189 18.1679C49.2901 18.1726 49.3742 18.2012 49.3932 18.3873C49.4918 18.8769 49.681 19.3021 49.9547 19.6494C50.0102 19.7229 50.0754 19.7921 50.1556 19.8618C50.1923 19.8921 50.2291 19.9193 50.2667 19.9468C50.2986 19.9697 50.3305 19.9892 50.3675 20.0122C50.4259 20.0479 50.4892 20.077 50.5468 20.0951C50.58 20.1105 50.6142 20.1221 50.6404 20.1278C50.7792 20.1748 50.9337 20.1977 51.1129 20.1977C51.2186 20.1977 51.307 20.1932 51.3788 20.1843C51.4213 20.1813 51.4637 20.1759 51.5155 20.1682L51.5241 20.1712L51.5403 20.1639C51.5797 20.1573 51.6155 20.1505 51.6493 20.1443C51.6734 20.1407 51.6936 20.137 51.7098 20.1332C52.2479 20.0045 52.667 19.7045 52.9555 19.2412C53.3479 18.6046 53.3474 17.9315 53.347 17.2191L53.3469 17.1466C53.3469 16.7135 53.1163 16.6226 52.9228 16.6226ZM47.0763 6.94615C47.3555 6.94615 47.6147 6.99502 47.8467 7.09125L47.8615 7.09764C48.1216 7.19876 48.3556 7.3698 48.5572 7.60625C48.9385 8.05096 49.1319 8.66934 49.1319 9.44372V15.2478C49.1319 15.9228 48.9987 16.5372 48.7362 17.0742C48.5053 17.5436 48.2139 17.9336 47.8706 18.233C47.8187 18.2775 47.7703 18.3189 47.7205 18.3555L47.6768 18.3858C47.2754 18.6696 46.8401 18.8198 46.3851 18.8324H46.328C45.4792 18.8324 44.7993 18.3689 44.3071 17.4548C44.0168 16.9184 43.8071 16.2265 43.684 15.3986C43.5946 14.7845 43.5493 14.0917 43.5493 13.3393C43.5493 12.5672 43.5994 11.8501 43.6981 11.2088C43.8563 10.2006 44.1388 9.33715 44.5378 8.64265C45.1834 7.51697 46.0375 6.94615 47.0763 6.94615Z" fill="#595959"/>
  <path d="M123.337 15.9801L123.319 15.9891C123.132 16.0688 123.056 16.2429 123.01 16.387L122.99 16.4547C122.943 16.607 122.899 16.7509 122.841 16.8996C122.658 17.3676 122.395 17.9484 121.992 18.2835L121.944 18.317C121.924 18.3326 121.905 18.3457 121.886 18.3589L121.852 18.3824C121.807 18.414 121.769 18.4345 121.716 18.4534C121.68 18.4736 121.642 18.4884 121.59 18.5021C121.551 18.514 121.512 18.523 121.47 18.5294C121.431 18.5371 121.385 18.5408 121.33 18.5408C121.154 18.5408 121.02 18.4999 120.919 18.4155C120.894 18.3944 120.87 18.3713 120.849 18.3467L120.836 18.3275C120.806 18.2865 120.785 18.2518 120.767 18.214C120.744 18.1661 120.727 18.1123 120.712 18.0409C120.689 17.9198 120.688 17.7744 120.71 17.5943C120.717 17.5133 120.735 17.4233 120.755 17.3381L120.762 17.3037C120.774 17.253 120.786 17.2003 120.8 17.1485L122.994 9.4627C123.078 9.18114 123.138 8.92684 123.178 8.68437L123.182 8.66012C123.199 8.54961 123.215 8.44191 123.225 8.33627C123.243 8.11392 123.243 7.9051 123.225 7.71414C123.214 7.62034 123.196 7.53013 123.179 7.45663L123.177 7.43727C123.153 7.34367 123.127 7.2621 123.096 7.18955C123.081 7.15196 123.062 7.11418 123.046 7.08185C123.031 7.04332 123.012 7.00723 122.987 6.96964C122.9 6.82773 122.8 6.70537 122.689 6.60669C122.6 6.52531 122.511 6.45802 122.414 6.39975L122.302 6.3381C122.235 6.30728 122.165 6.27702 122.103 6.25672L122.078 6.24694C122.072 6.24506 122.066 6.24337 122.06 6.24206L122.037 6.23585C121.981 6.21856 121.922 6.20334 121.865 6.19168C121.857 6.1898 121.848 6.18868 121.829 6.18604C121.766 6.17345 121.701 6.16236 121.622 6.15428C121.606 6.1524 121.59 6.15184 121.573 6.15146L121.548 6.15014L121.542 6.21537L121.547 6.15014L121.488 6.14507C121.313 6.12872 121.124 6.14169 120.96 6.1742C120.894 6.18435 120.824 6.20127 120.764 6.21649C120.728 6.22063 120.69 6.2289 120.664 6.23792C120.621 6.24882 120.581 6.25991 120.546 6.27532C120.257 6.36348 119.954 6.49937 119.646 6.67849C119.018 7.03843 118.369 7.62993 117.661 8.48683C117.055 9.22136 116.438 10.1662 115.776 11.3755L115.758 11.4088C115.671 11.5689 115.581 11.7345 115.491 11.9035C115.434 12.011 115.39 12.0018 115.385 12.0095L115.361 11.9885C115.361 11.9881 115.361 11.9879 115.361 11.9875C115.355 11.977 115.351 11.9701 115.348 11.9578C115.345 11.9464 115.345 11.9295 115.349 11.8851C115.35 11.8757 115.352 11.8659 115.349 11.8727L116.073 9.0069L116.088 8.94582C116.098 8.90278 116.109 8.85973 116.115 8.82158L116.665 6.63263C116.702 6.46027 116.684 6.33603 116.609 6.25314C116.548 6.18492 116.454 6.15033 116.327 6.15033C116.176 6.15033 116.019 6.20616 115.842 6.32438C115.772 6.37889 115.694 6.42888 115.628 6.47024C115.348 6.64297 114.993 6.78976 114.573 6.90648C114.051 7.05234 113.434 7.18165 112.737 7.29048C112.47 7.33221 112.313 7.4493 112.27 7.64102C112.249 7.75699 112.27 7.85247 112.332 7.92484C112.406 8.01017 112.535 8.05866 112.714 8.06862L113.581 8.14738C113.827 8.16542 113.983 8.22444 114.056 8.32669C114.127 8.42988 114.119 8.63419 114.031 8.93623L111.331 19.5267C111.298 19.6567 111.312 19.7603 111.372 19.8346C111.431 19.9069 111.531 19.9477 111.655 19.9532C111.679 19.9588 111.703 19.9588 111.724 19.9588H112.936C113.055 19.9588 113.163 19.9289 113.246 19.8725L113.267 19.8552C113.28 19.8436 113.295 19.8312 113.305 19.819C113.356 19.765 113.393 19.696 113.418 19.6118C113.427 19.5769 113.436 19.5417 113.444 19.5066C113.452 19.4729 113.46 19.4393 113.469 19.4024C113.478 19.3581 113.49 19.3137 113.503 19.2694L113.522 19.1985C113.536 19.1408 113.553 19.0831 113.572 19.0222C113.626 18.8066 113.687 18.5908 113.753 18.3792C113.779 18.2852 113.809 18.1897 113.839 18.0941L113.891 17.9228C113.977 17.6516 114.069 17.3772 114.165 17.1C114.257 16.8363 114.361 16.5551 114.481 16.2406C114.56 16.0348 114.641 15.8322 114.723 15.63L114.713 15.6266C114.885 15.204 115.074 14.7655 115.291 14.2902V14.3129L115.442 13.9652C115.455 13.9342 115.469 13.9034 115.486 13.8726L115.484 13.8718L115.486 13.8675L115.488 13.8682L115.54 13.7549C115.584 13.6592 115.63 13.5637 115.676 13.4698C115.761 13.2901 115.847 13.1106 115.936 12.9343C116.456 11.8975 117.007 10.9451 117.574 10.1038C118.132 9.27738 118.682 8.61332 119.208 8.12971C119.405 7.94833 119.593 7.80285 119.767 7.69628C119.822 7.66188 119.876 7.63049 119.928 7.60493C119.99 7.57317 120.052 7.54479 120.118 7.5181C120.163 7.49742 120.21 7.48201 120.283 7.46472C120.324 7.44968 120.367 7.44028 120.428 7.43333C120.532 7.42017 120.631 7.41773 120.748 7.44479L120.753 7.44573C120.807 7.46396 120.851 7.48389 120.892 7.50851C120.913 7.52279 120.935 7.53971 120.963 7.56471C120.972 7.57016 120.99 7.58444 121.019 7.6194C121.057 7.66301 121.093 7.71714 121.127 7.78011C121.14 7.80304 121.152 7.82841 121.162 7.8583C121.21 7.99739 121.221 8.18121 121.194 8.40544C121.19 8.44247 121.184 8.48044 121.177 8.52028C121.172 8.55017 121.167 8.58099 121.164 8.60468C121.158 8.62704 121.153 8.65148 121.148 8.67629C121.144 8.69546 121.14 8.71482 121.135 8.73719C121.126 8.78211 121.115 8.82684 121.104 8.87327L121.096 8.90296C121.075 8.98397 121.051 9.06818 121.022 9.16009L118.802 16.8472C118.489 17.9717 118.511 18.8196 118.868 19.3671C119.227 19.9182 119.774 20.1977 120.496 20.1977C120.551 20.1977 120.606 20.1945 120.661 20.1909C120.721 20.1875 120.778 20.1806 120.836 20.1706C120.966 20.1513 121.078 20.1255 121.175 20.093C121.235 20.0755 121.292 20.058 121.342 20.0364C121.395 20.0188 121.449 19.9943 121.49 19.9735C121.54 19.9558 121.586 19.9312 121.63 19.9075C121.679 19.8834 121.728 19.8558 121.776 19.8253C122.501 19.3799 122.948 18.6168 123.257 18.0018C123.449 17.6184 123.688 17.1099 123.832 16.578C123.869 16.4406 123.907 16.2414 123.803 16.0983C123.707 15.9658 123.507 15.9147 123.337 15.9801Z" fill="#595959"/>
</svg>