<svg width="24" height="25" viewBox="0 0 24 25" fill="none" xmlns="http://www.w3.org/2000/svg">
<mask id="mask0_224_645" style="mask-type:alpha" maskUnits="userSpaceOnUse" x="0" y="0" width="24" height="25">
<rect y="0.5" width="24" height="24" fill="#D9D9D9"/>
</mask>
<g mask="url(#mask0_224_645)">
<path d="M4 7.5C3.71667 7.5 3.47917 7.40417 3.2875 7.2125C3.09583 7.02083 3 6.78333 3 6.5C3 6.21667 3.09583 5.97917 3.2875 5.7875C3.47917 5.59583 3.71667 5.5 4 5.5H20C20.2833 5.5 20.5208 5.59583 20.7125 5.7875C20.9042 5.97917 21 6.21667 21 6.5C21 6.78333 20.9042 7.02083 20.7125 7.2125C20.5208 7.40417 20.2833 7.5 20 7.5H4ZM4 19.5C3.71667 19.5 3.47917 19.4042 3.2875 19.2125C3.09583 19.0208 3 18.7833 3 18.5C3 18.2167 3.09583 17.9792 3.2875 17.7875C3.47917 17.5958 3.71667 17.5 4 17.5H20C20.2833 17.5 20.5208 17.5958 20.7125 17.7875C20.9042 17.9792 21 18.2167 21 18.5C21 18.7833 20.9042 19.0208 20.7125 19.2125C20.5208 19.4042 20.2833 19.5 20 19.5H4ZM4 13.5C3.71667 13.5 3.47917 13.4042 3.2875 13.2125C3.09583 13.0208 3 12.7833 3 12.5C3 12.2167 3.09583 11.9792 3.2875 11.7875C3.47917 11.5958 3.71667 11.5 4 11.5H20C20.2833 11.5 20.5208 11.5958 20.7125 11.7875C20.9042 11.9792 21 12.2167 21 12.5C21 12.7833 20.9042 13.0208 20.7125 13.2125C20.5208 13.4042 20.2833 13.5 20 13.5H4Z" fill="#1C1B1F"/>
</g>
</svg>
