<svg width="72" height="71" viewBox="0 0 72 71" fill="currentColor" xmlns="http://www.w3.org/2000/svg">
    <path
        d="M19.999 0.700949C20.7107 0.890458 21.4935 0.748326 22.229 0.795703C24.7911 0.937835 26.3331 1.67218 28.658 2.24071C30.9828 2.80924 29.5357 2.2644 29.8441 2.35916C30.2949 2.50129 31.0303 3.11719 31.481 3.35408C32.169 3.7331 32.4537 3.75679 33.1416 4.23056C34.4464 5.10704 35.9173 5.55712 37.1509 6.43361C38.3845 7.31009 39.3334 8.44714 40.4484 9.34731C42.7733 11.2424 45.7387 11.9294 48.0636 13.8008C50.3884 15.6722 48.4194 14.085 48.9176 14.3456C50.8154 15.4116 52.9268 18.8938 53.1403 21.0258C53.3538 23.1578 53.0454 22.4945 53.3301 22.5182L56.1532 21.239C58.7627 20.2204 60.6843 22.2576 62.3449 23.9158C64.0056 25.574 62.3924 24.1527 62.4636 24.2238C62.6059 24.3422 63.6023 24.8397 63.7921 24.8397C63.9818 24.8397 64.6935 24.816 64.7884 24.7923C64.8833 24.7686 65.1917 24.0343 65.2392 23.9158C65.6899 22.8498 65.6662 22.684 66.3304 21.6654C66.7575 21.0258 67.0659 20.1967 67.7776 19.794C68.4893 19.3913 68.1571 19.7466 68.3469 19.6756C68.679 19.5571 69.1772 19.1544 69.4382 19.6282C69.6991 20.102 69.2484 20.0072 69.6042 19.8888C69.9601 19.7703 70.3871 18.3727 71.0514 18.2542C71.7156 18.1358 71.8817 18.5622 72.024 18.9175V19.0834C71.858 19.1781 71.7393 19.5808 71.5733 19.6519C71.4072 19.7229 71.1937 19.6519 71.1463 19.6993C71.0988 19.7466 70.9327 20.5284 70.6955 20.5994C71.4072 20.7416 70.8853 21.168 71.0039 21.4996C71.0988 21.7128 71.5495 21.6417 71.4784 22.0444L71.6444 21.9497C71.7631 22.2103 71.6444 22.4235 71.6444 22.613C71.6444 22.8025 71.8105 22.6367 71.8105 22.7077C71.8105 22.7788 71.5496 23.679 71.5021 23.7974C71.2886 24.2475 70.7192 24.437 70.2448 24.4607C69.7703 24.4844 69.794 24.2475 69.7229 24.3185C69.5805 24.437 69.7703 24.8871 69.0112 25.0529C68.252 25.2187 68.3469 24.6502 67.9199 24.6502C67.4929 24.6502 67.0659 24.9818 66.7337 25.124C66.4016 25.2661 66.3304 25.2187 65.9034 25.503C65.4764 25.7872 65.4764 25.6688 65.4527 25.7162C65.3815 25.8109 65.4527 26.1663 65.2392 26.4268C64.7173 27.1612 64.0056 27.8482 63.5785 28.7009C63.1515 29.5537 63.365 29.4353 63.2939 29.459C62.9617 29.5537 62.938 29.3169 62.9143 29.0563C62.7957 27.9192 63.3413 27.0191 64.0767 26.2373L64.1954 26.4031C64.3851 26.2136 64.1242 25.8346 63.9818 25.882C63.8395 25.9294 63.5785 26.1426 63.365 26.2373C62.938 26.4268 62.3924 26.569 61.9654 26.7585C59.4744 27.9903 57.5528 30.2881 55.3703 31.97C55.2517 32.2069 55.8685 32.7754 56.0583 33.036C57.8375 35.6654 57.458 40.4742 56.082 43.2458C53.3776 48.7179 47.0909 55.706 42.3463 59.591C41.1601 60.5622 39.7841 61.3913 38.598 62.3862C35.5614 64.8972 32.7858 67.124 29.3459 69.1612C27.6379 70.1798 25.7874 70.6773 23.7947 70.6062C21.8019 70.5351 20.5683 70.0613 19.8092 68.1189C19.4296 67.1476 19.8329 66.3659 20.3548 65.5842C21.1377 64.4234 22.2052 63.3575 23.0593 62.2441C23.1304 62.0546 22.7746 62.1256 22.6085 62.0783C21.707 61.7466 21.8968 61.3202 21.3749 60.6806L21.541 60.6333C21.6833 60.1832 21.28 60.3016 21.28 60.2306L22.0629 58.3828L23.1304 56.8668C21.8257 57.1984 20.7344 57.53 19.5957 56.5825C18.457 55.635 19.3347 55.8718 19.1687 55.5165C19.0026 55.1612 18.9314 55.2796 18.8603 55.1138C18.7416 54.8295 18.7416 54.3795 18.7416 54.0952C18.7891 53.0766 19.6669 51.6316 20.2362 50.8025C20.8767 49.8786 21.7308 49.3811 22.4899 48.6468C20.9242 48.8363 19.1449 49.0495 19.5245 46.8702C19.6431 46.2069 20.3548 44.9277 20.7344 44.3118C21.6596 42.7246 23.7235 40.569 25.3367 39.6451L27.2346 38.6976C26.6178 38.5081 25.9535 38.6265 25.3604 38.5554C20.5921 38.129 17.1285 38.816 12.7159 40.6637C10.1538 41.7297 6.80886 43.9801 4.00952 43.5774C3.44016 43.5064 2.5624 42.8431 2.5624 42.2272C2.5624 41.635 3.06059 40.1426 3.32155 39.5504L4.31792 37.8921C2.94198 37.7974 0.854331 36.7788 0.166358 35.5233C-0.0945977 35.0258 -0.0471512 34.7889 0.142635 34.2915C0.569653 33.0597 3.2741 30.6671 4.55516 30.4065C5.83621 30.146 5.78876 30.3355 6.3344 30.2881C6.35812 30.146 6.28695 30.1223 6.19206 30.0275C5.05334 28.9141 3.60623 27.9429 2.5624 26.6637C2.13539 26.1663 1.99305 25.9057 2.23028 25.195C2.44379 24.6028 3.44016 23.9158 4.03324 23.7737C7.44939 22.8972 13.0481 25.1476 16.1084 26.6637C17.1759 27.2086 18.5756 27.7534 19.572 28.3693C20.9479 29.2221 21.707 30.0275 23.3914 30.5013C25.0757 30.9751 28.9901 29.7669 30.4846 28.1087C30.6033 27.9666 31.2438 27.1849 31.1014 27.0427C30.3423 27.1138 29.4645 27.2086 28.7054 27.1375C27.543 27.0191 25.2655 25.9294 24.4352 25.124C23.6049 24.3185 23.0593 23.3473 22.9881 23.063C22.822 22.4945 22.8695 22.3287 23.2965 21.9734C23.7235 21.618 24.1505 21.5943 23.51 21.239C22.8695 20.8837 22.9881 21.1443 22.7271 21.0495C21.9917 20.8126 19.8804 19.8177 19.8566 18.9649C19.8092 17.3541 21.8019 17.283 23.0355 17.0698C24.2692 16.8566 23.8184 17.0224 24.2692 16.9751C24.7199 16.9277 24.2929 16.8329 24.3403 16.8329C24.4827 16.8329 24.8622 17.0935 24.7436 16.6908C24.625 16.2881 24.5301 16.5487 24.4827 16.525C23.6286 16.1223 22.5374 15.9328 21.5647 15.6011C20.5921 15.2695 19.1687 14.7483 18.2909 13.706C17.4131 12.6637 17.5318 12.569 17.5792 12.3321C17.6267 12.0952 17.7453 12.2847 17.7453 12.2373C17.7453 12.0952 17.6267 11.4793 17.6741 11.4082L17.8402 11.503C17.7927 11.1476 18.2197 10.7449 18.5044 10.5317C18.7891 10.3185 19.1687 10.2475 19.3822 10.1053C19.5957 9.96322 19.5008 9.84477 19.6669 9.77371C19.9278 9.65526 20.1888 9.89215 20.1888 9.51313C20.1888 9.13411 20.0227 9.27624 19.8804 9.1578C19.5957 8.92091 19.3584 8.61296 19.0738 8.39976C18.5044 7.97337 17.3894 7.6891 16.9387 7.21533C16.7726 7.04951 16.8201 6.88369 16.7963 6.88369C16.7726 6.88369 16.6303 6.97844 16.5117 6.95476C16.0609 6.88369 16.2033 6.48098 16.1795 6.45729C16.1558 6.4336 16.0135 6.57574 15.9186 6.50467C15.8237 6.4336 15.4916 6.00721 15.3492 5.93614C15.2069 5.86508 15.0883 5.93614 15.0408 5.91245C14.9934 5.88877 14.5901 5.22548 14.424 5.03597C14.1393 4.65695 13.2141 3.42515 13.2141 3.02244C13.2141 2.61973 13.57 2.0512 13.6412 1.98014C13.7123 1.90907 14.258 1.60112 14.3766 1.57743C15.0883 1.34054 16.227 1.07997 16.9624 0.937835C17.6978 0.795703 18.2197 0.843081 18.8128 0.629883H20.0464L19.999 0.700949ZM51.7881 18.7754C50.9341 17.1883 50.6257 16.525 49.0837 15.4116C47.5416 14.2982 45.2168 13.0664 43.0105 12.0241C40.2823 10.7449 38.6217 8.73141 36.2257 7.26271C30.9591 4.06474 24.0082 2.00383 17.8639 3.14088C17.6504 3.18826 17.1047 3.11719 16.9624 3.33039C16.8201 3.54359 17.1047 3.59097 17.1996 3.70941C17.3657 3.87523 17.8164 4.25425 17.9113 4.42007C18.0062 4.58589 17.9113 4.68064 17.9825 4.7754C18.4332 5.29655 20.0227 5.84139 20.7344 6.2441C21.7782 6.86 22.7509 7.71279 23.771 8.35239C24.9571 9.11042 26.0484 9.65526 27.1397 10.5791C27.4243 10.816 27.6853 11.124 27.9463 11.3845C27.8751 11.6451 27.6853 11.9531 27.4006 11.9531C27.1159 11.9531 26.3331 11.5977 25.9061 11.5504C25.052 11.4793 21.6359 11.6925 21.0665 12.2847C20.4972 12.8769 20.853 13.0191 21.2089 13.2796C23.0118 14.5588 27.3295 14.2982 28.4919 16.3355C29.6543 18.3727 28.6342 16.5487 28.6342 16.6671C28.6342 16.8803 28.4919 17.9937 28.3733 18.1832C27.9937 18.7754 26.6415 18.6806 26.0484 18.7517C25.4553 18.8228 25.7637 18.9175 25.6214 18.9412C25.479 18.9649 25.3367 18.7991 25.1469 18.7991C24.2217 18.7517 23.1779 18.7991 22.2764 18.8938C21.3749 18.9886 21.6596 18.9175 21.707 19.107C21.7545 19.3913 22.9407 19.8651 23.2491 20.0072C23.5575 20.1493 23.6049 20.3152 23.6524 20.3389C23.7235 20.3862 24.0319 20.2678 24.1743 20.3152C24.4589 20.3625 24.7673 20.5284 24.8148 20.8126C26.0958 21.0021 27.543 20.9548 28.824 21.168C30.1051 21.3812 29.3934 21.2864 29.4883 21.3812C29.5832 21.4759 29.5832 22.3287 29.1561 22.2813C28.1598 22.2339 27.0922 22.1629 26.0958 22.2103C25.0995 22.2576 24.7199 22.305 24.364 22.3761C24.0082 22.4471 24.2692 22.5419 24.198 22.5893C24.1268 22.6367 23.937 22.5893 23.937 22.684C23.8896 23.0867 24.0794 23.4894 24.3403 23.7737C24.625 24.1053 24.8622 24.2475 25.1706 24.4133C25.479 24.5791 25.313 24.7213 25.4316 24.8397C25.6688 25.0529 26.1196 25.4556 26.3568 25.5977C26.594 25.7399 26.8075 25.7162 26.9499 25.8583C27.0922 26.0004 26.9499 26.0715 27.0685 26.1189C27.543 26.3321 28.7291 26.6163 29.251 26.64C29.7729 26.6637 31.1963 26.4742 31.5996 26.569C32.0029 26.6637 31.742 26.7111 31.8369 26.7585C31.9318 26.8059 31.9792 26.7348 32.0029 26.7585C32.4062 27.1138 31.7894 28.2746 31.481 28.6062C29.9865 30.2881 25.7163 31.8515 23.51 31.4251C21.3038 30.9987 20.6632 30.3118 18.8603 29.2695C18.1486 28.8668 17.2708 28.5825 16.5117 28.2035C15.7525 27.8245 14.8036 27.1612 13.6649 26.7585C11.1739 25.8583 8.06619 24.816 5.43291 24.9345C2.79964 25.0529 3.9858 25.1003 3.84346 25.7162C4.95845 26.7585 6.07344 27.9192 7.3545 28.772C8.63555 29.6248 9.53703 30.0038 10.652 30.2881C11.767 30.5724 11.8145 30.4302 12.2178 30.5724C12.6211 30.7145 12.0042 30.8092 12.0517 30.9751L12.5736 31.0698C12.4313 31.2119 12.5024 31.5673 12.4787 31.591C12.455 31.6383 12.1466 31.662 12.1229 31.6857C12.0991 31.7331 12.2178 31.8989 12.2178 31.9937C12.2178 32.0884 11.8856 32.3016 11.9094 32.5859C9.63193 32.7517 7.30705 32.5148 5.10079 33.0123C4.57888 33.2018 3.08431 34.3625 2.77591 34.8126C2.46751 35.2627 2.6573 34.9548 2.68102 35.0732C2.70474 35.1916 3.74857 35.7128 3.93835 35.7602C4.86356 35.9734 6.38184 35.7602 7.28333 35.4759C8.75417 35.0021 8.54066 34.6705 10.3436 34.6942C12.1466 34.7179 12.194 34.6468 12.2178 34.9074L12.0517 35.3101C12.8346 35.3101 12.455 35.4522 12.4075 35.7839C12.3601 36.1155 12.6922 35.7839 12.5736 35.9971C12.455 35.9971 12.0754 36.2339 12.0517 36.305C12.0042 36.5419 12.7397 36.5182 11.9568 36.8262C12.3601 36.8262 11.8619 37.2999 11.767 37.3473C11.3637 37.5605 10.5097 37.5131 10.0589 37.5842C8.65927 37.8211 5.59898 40.4031 5.02962 41.7297C4.93473 41.9666 4.72122 42.2272 5.05334 42.2746C6.50046 42.5114 9.89288 40.7585 11.3874 40.1899C14.6138 38.9344 18.2672 37.9632 21.7308 37.679C22.4187 37.6316 22.7509 37.7737 23.4626 37.5368C24.1743 37.2999 23.4863 37.7026 23.5575 37.7263C23.7235 37.7737 24.0556 37.6316 24.2454 37.6316C25.74 37.679 28.3021 37.9395 29.7729 38.2949C31.2438 38.6502 29.9627 38.2475 29.9627 38.2475L30.1051 38.6265C30.1051 38.9345 28.9664 39.3135 28.658 39.503C27.7565 40.0478 26.9262 40.9243 26.0958 41.5876C24.6962 42.701 24.198 42.8905 23.1304 44.4776C22.0629 46.0647 22.1341 45.9937 22.1103 46.1595C21.8257 47.4387 23.937 46.657 24.5538 46.5148C25.9061 46.1595 27.0448 45.6383 28.5156 45.6857C29.9865 45.7331 29.085 45.8042 29.085 45.8989C28.7766 46.2779 28.6105 46.728 28.3021 47.1307C27.4243 48.2204 26.001 48.5994 24.8385 49.2627C23.6761 49.926 22.3001 51.9158 21.8494 53.195C21.3986 54.4742 21.5647 54.5216 22.395 54.5216C23.2253 54.5216 23.083 54.1663 23.3677 54.1189C23.6524 54.0715 23.9608 54.1189 24.2692 54.0478C24.7911 53.9531 25.1706 53.5977 25.6451 53.4082C26.5229 53.0529 27.4718 52.9818 28.3496 52.6265C29.4408 53.3845 28.2072 53.9531 27.709 54.5216C27.3295 54.9717 27.1871 55.4454 26.8787 55.8718C26.0721 56.9615 24.5301 57.9564 24.0556 59.2593C23.5812 60.5622 23.937 59.97 23.8184 60.2779C23.8896 60.349 24.9334 60.0174 25.0757 59.9226C25.3604 59.7331 25.4553 59.4015 25.7637 59.2119C26.0721 59.0224 26.3805 58.9514 26.6415 58.7855C27.0685 58.525 28.9426 57.0563 29.2036 57.08C29.4645 57.1037 29.3222 57.53 29.2748 57.6722C29.1324 58.0512 28.3258 59.3541 28.0649 59.7094C27.8039 60.0647 27.1634 60.5859 26.7601 61.036C25.3604 62.5757 24.0556 63.9971 22.9169 65.7737C22.6323 66.2001 22.0866 67.0292 22.0155 67.503C21.8019 69.0901 23.083 68.8769 24.2217 68.8295C25.3604 68.7822 26.7601 68.5216 28.0886 67.7872C31.0777 66.1527 33.7822 64.2339 36.4392 62.1256C38.6454 60.3964 40.9229 58.9514 43.0105 57.0563C44.1255 56.0377 45.1456 54.9243 46.2843 53.9531C47.1384 53.2187 47.7077 52.5317 48.372 51.5842C49.0362 50.6367 48.9176 50.5656 49.2023 50.2339C49.4869 49.9023 50.1275 49.5943 50.1749 49.1443C50.4359 49.3338 50.3173 49.0969 50.4359 48.9548C51.1713 47.9835 51.8593 47.2492 52.6896 46.3253C53.5199 45.4015 53.6385 44.8803 53.9232 44.3592C54.7298 42.9141 55.7499 41.1138 55.9397 39.503C56.1532 37.679 56.082 35.547 55.0856 33.9835C53.9232 32.1358 53.1166 31.97 51.2899 31.0461C50.3173 30.5487 50.1986 30.2407 48.965 30.0512C47.7314 29.8617 47.8263 30.0275 47.3281 29.9564C46.8299 29.8854 47.5654 29.4116 47.7077 29.5301C47.85 29.6485 47.7077 29.6959 47.7552 29.6959C49.3921 29.2221 51.5271 29.8854 53.0454 30.6908C54.5637 31.4962 54.113 31.4725 54.3502 31.5673C54.5874 31.662 54.5163 31.6383 54.6349 31.591C55.4415 30.9514 56.1057 30.146 56.8886 29.459C58.2883 28.2272 59.593 27.1612 61.2537 26.3084C62.9143 25.4556 62.3924 25.8583 62.3924 25.7872C62.1789 25.4082 61.8705 25.3845 61.5621 25.124C60.3047 24.0817 59.5456 22.8972 57.7664 22.613C55.9397 22.3287 54.8247 23.7026 53.1878 23.9395C51.5509 24.1764 51.8118 23.9395 52.0965 23.2762C52.3812 22.613 52.2151 22.8025 52.2388 22.7551C52.2863 22.6603 52.4286 22.7551 52.5472 22.3287C52.7845 21.4759 52.4049 19.8651 51.9779 19.107C51.5509 18.349 51.7407 18.9175 51.7169 18.8938L51.7881 18.7754ZM69.5568 20.3389C69.5331 20.3152 69.6042 20.0546 69.4856 20.0072C69.3196 20.2204 69.0112 20.2678 68.8214 20.4099C68.1334 20.9548 68.252 21.4285 67.8962 21.926C67.5403 22.4235 67.6352 22.0918 67.564 22.2103C67.2794 22.5656 67.137 23.2762 66.7337 23.6079C67.0421 23.6079 67.8013 23.4894 67.9911 23.2526C68.1809 23.0157 67.9673 22.7551 68.6553 22.992C68.2757 22.0207 68.4181 20.2915 69.794 20.552C69.794 20.4336 69.6042 20.4336 69.5568 20.3625V20.3389Z" />
    <path
        d="M65.6657 18.728C65.6894 18.7517 65.7131 19.1781 65.9029 18.728C66.2113 19.0597 66.1876 19.8888 65.9503 20.2441C65.7131 20.5994 65.2149 20.9311 65.1675 20.9548C64.7642 21.1206 64.1474 20.9074 64.2185 20.4573C64.2897 20.0072 64.6218 19.8177 64.7167 19.6519C64.8116 19.4861 64.8353 19.0123 65.0726 18.8702C65.3098 18.728 65.6419 18.728 65.6657 18.7517V18.728Z" />
    <path
        d="M68.7267 17.1171C68.3471 17.5435 67.2795 17.2592 67.7066 16.4064C67.8963 16.0511 68.2996 15.293 68.7267 15.6721C69.1537 16.0511 69.0588 16.8091 68.7267 17.1408V17.1171Z" />
    <path
        d="M71.241 15.7906C71.3122 15.9091 71.5732 16.0275 71.3834 16.2881C71.1936 16.5487 70.5293 16.8566 70.4107 16.8093C69.96 16.6197 69.5567 15.1037 70.8852 15.3643C72.2137 15.6248 71.1461 15.6248 71.241 15.767V15.7906Z" />
    <path
        d="M58.4066 24.4844C58.9997 24.3186 59.5453 25.124 59.2132 25.6451C58.881 26.1663 58.6438 26.1189 58.5489 26.1189C57.8135 26.19 57.7898 24.6502 58.4066 24.4607V24.4844Z" />
</svg>