<svg width="68" height="71" viewBox="0 0 68 71" fill="currentColor" xmlns="http://www.w3.org/2000/svg">
    <path
        d="M55.1292 1.78479C55.5819 2.32675 55.7544 2.73864 56.0347 3.43236C57.5654 6.9226 59.9155 11.1716 58.859 15.2472C58.4063 16.9814 57.6517 18.3906 56.703 19.8864L57.5008 19.5395C57.7595 19.236 58.1691 18.8892 58.4063 18.7157C58.6434 18.5423 58.6866 18.7808 58.7081 18.7808C58.7297 18.7808 58.7081 18.5423 58.8159 18.4122C58.9237 18.2822 59.2902 18.3255 59.3765 18.0654C59.4627 18.1521 59.5274 18.1738 59.5274 18.3038C59.5274 18.4339 58.9453 19.4962 58.859 19.843C58.4278 21.3605 58.3847 23.3983 58.32 24.9591C58.32 25.2843 58.4278 25.8263 58.32 26.0648C58.0613 26.8235 56.2718 26.9969 55.7113 27.5823H56.3365C56.7893 27.3438 57.932 27.0186 57.5439 27.9074C57.4145 28.1892 56.8971 29.013 56.7246 29.2949C55.8838 30.5089 53.9218 31.7662 52.4126 31.7662C52.4126 31.918 52.5635 31.918 52.6713 31.9613C52.8438 32.0264 53.4691 32.1781 53.6415 32.1998C54.3961 32.3082 55.6035 31.918 54.8705 33.262C54.3746 34.1725 53.1888 35.1481 52.5204 35.9502C51.8521 36.7523 51.0759 38.1397 50.4291 39.2887C49.6529 40.6327 48.575 41.6083 46.9364 41.088C45.5781 40.6544 45.1685 39.7439 43.4006 39.6572C41.6327 39.5705 41.8267 39.7873 41.0937 39.9173L42.1717 40.481C43.2281 40.6544 44.1983 41.5432 45.0607 41.9118C45.341 42.0202 45.9231 41.8901 45.88 42.3887C45.8584 42.7572 44.3708 43.4509 44.0258 43.6894C41.0721 45.5971 38.5927 46.0957 36.0918 48.9139C36.0702 48.9356 36.1349 49.0874 35.9624 49.2391C35.7899 49.3909 35.2509 49.651 35.1862 49.6727C35.0353 49.6727 34.9275 49.5209 34.7766 49.5209C34.3238 49.4776 33.8495 49.6076 33.3968 49.4776L30.2275 49.6944C30.2275 49.8244 30.6155 49.9111 30.7233 49.9545C31.4779 50.1713 33.5046 50.3447 33.289 51.4286C33.138 52.1657 30.9605 53.1629 30.2921 53.5531C29.6238 53.9434 28.4595 54.6804 27.5325 55.1574C26.6054 55.6343 26.6054 55.6993 26.1095 55.7644C26.1958 56.0245 26.2604 55.8944 26.3898 55.8944C26.7563 55.8727 28.3302 55.6993 28.5242 55.9811C28.8907 56.5448 27.1875 56.4581 26.9288 56.393C26.9072 56.87 27.899 56.7832 27.5756 57.1951C27.2522 57.607 26.476 56.9784 26.1095 56.8266C25.549 56.6098 24.7728 56.5231 24.1476 56.5665C23.7379 56.6098 23.6948 56.6749 23.587 57.0651C24.3847 57.3902 25.5705 57.1518 26.1742 57.7154C25.9802 58.3007 25.7861 57.9756 25.4412 57.9322C24.7297 57.8455 24.3632 57.7805 23.6948 57.6287C23.0264 57.477 22.2072 57.2819 21.4526 57.2602C19.62 57.2168 19.1025 58.9077 18.2617 60.2301C17.9383 60.7287 17.2484 61.5092 17.0328 62.0078C16.8172 62.5064 16.9681 62.2679 16.9681 62.398C17.3993 62.333 17.8089 62.463 18.2186 62.4847C22.3365 62.7015 25.2256 63.7421 29.0848 64.891C37.8597 67.4924 47.5616 67.1456 56.2934 64.5658C59.1824 63.7204 62.8261 62.463 65.327 60.8371C65.5426 60.6854 66.6853 59.6882 66.75 59.5364C66.9871 59.0161 66.9225 58.4959 66.5559 58.0623C65.7151 57.0868 65.3701 57.3252 64.3568 57C61.5325 56.0462 59.01 55.4392 56.0347 55.0923C53.1672 54.7671 50.1919 54.2469 47.3029 54.2469C44.4139 54.2469 45.4919 54.4853 45.19 54.3769C44.5432 54.1601 45.2978 53.9867 45.4488 53.9C46.6777 53.2496 49.653 53.6832 51.1406 53.7916C55.6466 54.1168 62.1793 54.5287 66.211 56.5014C67.3105 57.0434 67.5477 57.6937 68.0004 58.7777C68.0004 58.8861 67.289 60.035 67.138 60.2301C66.0601 61.8127 64.055 62.6798 62.1793 63.3302C51.8736 66.9071 39.5629 68.7281 28.977 65.3463C27.3169 64.8043 23.393 63.2868 21.7975 63.2868C20.2021 63.2868 21.4957 63.4386 21.4094 63.4386C21.3232 63.4386 20.8489 63.2001 20.5902 63.1784C19.3613 63.07 18.0461 63.5036 16.8819 63.4602C16.58 63.4602 16.4722 63.2001 16.2351 63.07L16.0195 63.6987C15.5451 64.284 15.6529 65.2162 15.4373 65.975C15.2002 66.8204 14.3378 68.2078 13.6263 68.6631C12.9148 69.1183 13.4107 68.6631 13.3029 68.7281C12.4836 69.2918 11.9662 69.9204 11.2763 70.6358C11.1685 70.3323 11.4488 70.0505 11.5134 69.747C11.9662 67.4491 13.4323 65.8882 14.1222 63.7204C14.1653 63.5686 14.5103 63.2651 14.1653 63.1784C14.0144 63.1351 13.2814 63.3085 13.0226 63.3302C9.96113 63.4819 5.86474 63.3302 2.99727 64.3274C2.67387 64.4358 0.94908 65.2596 0.798161 65.4547C0.474762 65.8015 0.582561 66.5819 0.798161 66.9505C1.01376 67.319 1.01376 66.9938 1.07844 67.0372C1.14312 67.0806 1.14312 67.319 1.35872 67.4708C1.9624 67.8827 3.23443 68.5113 3.94591 68.8365C4.57115 69.1183 5.21795 69.205 5.84318 69.4869C6.46842 69.7687 6.1019 69.5519 6.23126 69.5519C6.18814 70.1156 5.26107 69.9421 4.89455 69.8337C3.90279 69.5953 1.68212 68.4029 0.86284 67.7959C0.0435632 67.1889 0.0866831 66.7554 0.0651232 66.647C-0.0426765 66.2568 0.0435632 65.6931 0.216043 65.3463C0.496322 64.7826 2.30736 63.9805 2.95415 63.7637C4.93767 63.0267 8.08541 62.94 10.2198 62.7015C11.88 62.5281 13.5185 62.3113 15.1786 62.1812C15.2218 61.856 15.308 61.5959 15.4589 61.2924C15.8685 60.4252 16.7525 59.4497 17.1621 58.8644C19.0379 56.2196 20.9998 52.8594 20.0081 49.4342C19.8571 48.8923 18.9732 47.4181 19.5337 46.9845C20.0943 46.551 19.814 46.9845 19.8571 47.0496C19.9218 47.1363 20.4824 48.502 20.5902 48.7405C20.8273 49.3258 20.7195 49.9111 21.431 50.1713C21.431 49.651 21.431 49.1307 21.431 48.6104C21.4094 47.4615 21.1076 46.8328 20.9351 45.7922C20.7626 44.7517 20.6549 44.123 21.0645 44.1447C21.4741 44.1663 21.4741 45.3803 21.5819 45.7489C21.6897 46.1174 21.97 46.6594 22.1209 46.9195C22.3581 47.3097 22.315 46.8545 22.4012 46.6594C23.1774 44.73 23.6732 42.8223 24.126 40.8278C24.2122 40.4159 24.6866 37.4893 24.859 37.381C25.0315 37.2726 25.0746 37.381 25.1609 37.381C24.9453 37.6628 25.2256 37.5544 25.3118 37.6845C25.549 38.0313 24.859 39.4838 25.01 40.0041C25.8508 38.5082 26.6916 36.9474 27.7265 35.5816C28.7614 34.2159 29.3866 33.6306 29.6238 33.5655C29.8609 33.5005 29.7531 33.6089 29.7747 33.7173C29.8394 34.2592 29.6669 34.7362 29.6669 35.2348C29.6669 35.8418 29.7747 36.4921 29.7747 37.0991C30.1412 36.9474 29.9256 36.3621 29.9903 36.0586C30.249 34.9096 30.5509 33.2187 31.0036 32.2431C31.6073 30.8991 32.1679 30.6172 33.138 29.7067C34.367 28.5578 35.3587 27.3871 36.5876 26.2599C37.8381 25.1109 39.2395 23.8102 40.2097 22.5095C40.2097 22.5095 40.3606 22.5962 40.49 22.4444C40.6193 22.2927 40.684 21.9675 40.8134 21.7507C41.029 21.3388 41.2877 20.7102 41.3739 20.45C41.4602 20.1899 41.4602 19.7346 41.5033 19.6696L41.6973 19.778C41.8051 19.6479 42.0423 18.2822 42.107 18.0437C42.1717 17.8052 42.4304 17.8919 42.301 17.5668L42.6029 17.6752C42.3657 17.3717 43.0341 16.4612 43.2497 16.4612C43.4653 16.4612 43.3143 16.7213 43.3359 16.743C43.379 16.7863 43.5084 16.808 43.5515 16.8731C43.6162 16.9598 43.5299 18.9108 43.4868 19.1276C43.4437 19.4962 43.2496 19.9514 43.2065 20.3633C43.1634 20.7752 43.3359 20.5801 43.4006 20.515C43.4653 20.45 43.724 19.7563 43.7671 19.6479C44.1983 18.4556 44.3061 17.0898 44.7589 15.8758C45.3841 14.1849 46.613 12.2555 47.4538 10.6513C48.2947 9.0471 49.3942 7.57296 50.1919 5.92539C50.8603 4.53796 51.1621 3.54075 51.9814 2.24004C52.1539 1.95822 52.4557 1.22115 52.6282 1.02604C52.7576 0.87429 52.8223 0.961004 52.8869 0.917647C52.9516 0.87429 52.8869 0.744219 52.9516 0.744219C53.1025 0.744219 53.1888 0.917647 53.2535 0.917647C53.3181 0.917647 53.4259 0.765897 53.5553 0.744219C54.0943 0.657505 54.8058 1.43793 55.1507 1.82815L55.1292 1.78479ZM55.0429 6.29392C54.3315 5.79532 53.1672 5.817 52.4342 6.27225C51.3777 6.94428 50.2997 9.32892 49.6314 10.4128C48.4887 12.2338 47.3676 13.9464 46.2034 15.7458C44.263 18.7591 44.0474 22.1626 43.7671 25.3494C43.7455 25.7179 43.724 27.1487 43.185 27.0186C42.646 26.8885 43.0125 26.7585 42.9263 26.6718C42.84 26.585 42.6891 26.5417 42.646 26.4983C42.6029 26.455 42.5382 25.5878 42.5166 25.4578C42.4951 25.3277 42.6029 25.0892 42.6029 24.8941C42.6029 24.699 42.4519 23.6584 42.4088 23.6151C42.3657 23.5717 42.2579 23.6151 42.1717 23.55C42.0854 23.485 42.1285 23.3983 42.0854 23.3983C42.0423 23.3983 41.4817 23.5067 41.4386 23.5284C41.1799 23.6584 40.4684 24.9375 40.2313 25.241C39.1533 26.585 37.601 27.5172 36.2858 28.6228C35.7899 29.0564 35.2725 29.7501 34.755 30.1403C33.8495 30.8124 33.5908 30.5089 32.8362 31.7229C31.9307 33.1536 31.4995 35.2131 31.1545 36.8823C30.9605 37.7928 30.9389 39.0502 30.3137 39.8306C30.2059 39.9607 30.055 39.939 29.9256 40.0257C29.7963 40.1124 29.8178 40.2859 29.7531 40.2859C29.4082 40.3292 29.0848 39.3971 28.9985 39.1152C28.7183 38.0096 28.8261 37.2726 28.8692 36.3187C28.9123 35.3648 28.7614 36.0802 28.8045 35.9502C28.4164 36.0152 28.4164 36.5572 28.3517 36.6656C28.2224 36.839 27.8127 37.1642 27.6834 37.4026C26.8857 38.7033 26.6916 40.3292 25.4627 41.3048C24.2338 42.2803 24.9237 41.5216 24.7081 41.6733C24.126 43.5377 23.5008 45.402 23.1989 47.3531L22.8971 47.2447C22.8108 47.4615 22.8324 47.765 22.7462 47.9601C22.6599 48.1552 22.0131 48.5888 21.9916 48.6321C21.8406 49.2608 22.2934 50.3014 21.4957 50.7349V51.8839C21.6682 51.537 21.9053 51.0168 22.1209 50.7133C22.6599 49.9762 23.5008 49.2825 23.9966 48.6104C24.8159 47.5048 25.398 46.2258 26.1311 45.0552C26.7779 44.9901 27.2522 44.3181 27.6834 43.8845C28.1146 43.4509 27.7265 43.6244 27.8127 43.5593C27.899 43.4943 28.1361 43.5593 28.2224 43.516C28.3086 43.4726 28.1361 43.1908 28.2224 43.1258C28.3086 43.0607 28.3733 43.2342 28.4164 43.2125C28.4595 43.1908 28.9339 42.5838 29.1063 42.4104C30.2059 41.4348 31.4995 40.1124 32.6422 38.9201C33.677 37.8362 34.7335 36.4054 35.8762 35.5166C38.5711 33.4138 40.9427 30.8774 43.2928 28.341C45.9231 25.5011 48.3378 22.4878 50.5153 19.2794C50.8172 18.8241 51.8521 17.415 51.9599 16.9814C52.0677 16.5479 51.8952 16.5912 51.9599 16.5262C52.1755 16.1793 52.1323 16.3528 52.3479 15.8542C52.7145 14.9437 52.9732 13.9681 53.5122 13.1877C54.0296 14.1632 53.5122 15.2038 53.2966 16.1793C53.0163 17.415 52.8654 18.694 52.3264 19.843C52.2186 20.0598 51.3993 21.599 51.3131 21.664C51.2268 21.729 51.0759 21.6423 51.0759 21.664C51.0328 21.729 51.1837 21.8808 51.1621 21.9458C51.1406 22.0109 51.0328 21.9458 50.9681 22.0325C50.2351 23.1815 49.2002 24.092 48.575 25.2626C47.9497 26.4333 48.2731 26.1515 48.23 26.1731C48.1653 26.2165 47.9497 26.1515 47.8635 26.1948C47.7772 26.2382 47.7557 26.5417 47.6694 26.6501C46.8286 27.799 45.9446 29.2515 44.996 30.3137C42.3441 33.2404 39.4335 35.9068 36.6523 38.7033C36.8032 38.9852 36.5661 38.8334 36.3074 39.0285C35.8977 39.3537 34.9275 40.546 34.4101 41.0446C31.8229 43.581 29.3004 46.3342 26.8641 49.1307C25.937 50.193 25.2902 51.1251 24.2554 51.8839C23.2205 52.6643 21.776 54.4853 21.2801 55.6776C21.1292 56.0028 20.9567 56.3714 21.0645 56.7182C21.3448 56.3714 21.8838 56.6965 22.1856 56.6098C22.4874 56.5231 23.0264 56.0895 23.4361 55.9378C23.8457 55.786 24.3416 55.9811 24.6866 55.8077C25.0315 55.6343 25.8939 54.8105 26.3467 54.507C26.9935 54.0734 27.7696 53.8133 28.3949 53.293C28.9339 52.8594 29.3004 52.2308 29.9903 51.9489C30.6802 51.6671 30.1843 51.9923 30.1843 51.9706C30.1843 51.9272 30.3784 51.2552 30.3784 51.2119C30.3784 50.6699 30.055 50.7133 29.7747 50.5398C29.4944 50.3664 29.71 50.3664 29.6238 50.3447C29.1926 50.258 27.5109 50.6049 27.1013 50.8C26.6916 50.9951 26.5838 51.2552 26.5407 51.2335C26.4976 51.2119 26.282 50.7566 25.8939 50.93C25.9802 50.6265 26.3251 50.4965 26.4545 50.3881C28.8045 48.2636 33.0302 49.2608 35.8762 47.2013C38.7221 45.1419 39.2826 44.5565 41.3093 43.6027C41.5033 43.516 42.5597 43.1258 42.6244 43.0607C42.9263 42.6705 42.6244 41.5216 41.9776 41.4132C41.6542 41.3481 41.0937 41.1313 40.8996 41.1097C39.8216 41.0013 38.5927 41.3915 37.6225 41.9118C37.062 42.2153 36.6739 42.7789 36.0271 42.8656C35.7468 42.2803 36.0271 42.367 36.1564 42.1502C36.6308 41.3915 37.2129 40.4376 37.9459 39.874C37.9675 39.874 38.0537 39.939 38.0968 39.8957C39.412 39.0068 42.9047 38.2915 44.5432 38.4866C45.6212 38.6166 46.5914 39.1152 47.6048 39.202C48.1222 39.2453 48.4025 39.2453 48.7906 38.8984C49.1786 38.5516 49.7823 37.7061 49.9763 37.4026C50.58 36.4705 50.8819 35.3215 51.464 34.476C51.8521 33.9124 52.2833 33.6739 52.6713 33.1103C52.6713 33.0886 52.9516 33.2187 52.9516 32.9802C52.3048 32.8068 51.5287 32.9802 50.9034 32.8285C50.2782 32.6767 48.23 31.918 47.7557 31.5277C47.7341 31.5061 47.2167 31.0291 47.2167 31.0075C47.2167 30.6823 47.6479 30.4438 47.9282 30.4872C48.2084 30.5305 48.2516 30.769 48.4887 30.834C49.3511 31.0291 52.003 30.8774 52.9085 30.6823C54.1159 30.5089 54.9782 29.6417 55.9053 28.9046V28.4277C55.9269 28.4277 53.081 28.6011 53.081 28.6011C52.9516 28.5578 52.7791 28.6011 52.8223 28.3844C52.9516 27.6039 55.237 26.4766 55.8622 25.9997C56.9833 25.1326 56.5737 23.7885 56.6815 22.5312C56.6815 22.4444 56.8108 22.336 56.8108 22.2277C56.854 21.8808 56.7462 21.5123 56.9186 21.1654L55.97 21.6857C55.3017 22.0976 54.892 22.4878 54.3099 23.0298C53.7278 23.5717 52.7576 24.4822 52.2617 24.3955C51.7658 24.3088 52.0892 24.1137 52.0892 24.0486C52.0892 23.9836 52.2617 24.0053 52.2833 23.9403C52.3048 23.8535 52.2186 23.6801 52.3264 23.5067C52.4342 23.3333 52.8223 23.1815 52.9732 23.0298C53.3828 22.5962 53.8356 22.2277 54.1805 21.7724C54.4393 21.4039 54.8489 21.1004 55.0645 20.8619C55.4741 20.3633 56.5521 17.8919 56.7893 17.2633C57.8888 14.3367 57.3283 10.4779 55.9916 7.63799C55.8191 7.26946 55.3663 6.40232 55.0861 6.18553L55.0429 6.29392ZM47.0658 25.913C46.8717 25.7179 45.6428 27.3871 45.3841 27.3438C44.0474 28.6011 43.1203 30.2054 41.9345 31.5928C39.8863 33.9774 37.1482 35.4949 34.8413 37.3376C34.6688 37.4677 34.4316 37.8579 34.2592 37.9663C34.0867 38.0747 34.022 37.9663 34.0004 38.0096C33.9573 38.0313 34.1082 38.2264 34.0004 38.3565C33.7848 38.6383 33.0734 39.0502 32.7715 39.3537C32.405 39.7222 32.1032 40.2859 31.7582 40.6544C29.8178 42.7572 27.1228 44.795 25.5058 47.1796C25.1393 47.7216 24.8806 48.4153 24.5572 48.9356C23.781 50.1496 22.8324 51.0818 22.1425 52.3175C22.0347 52.5126 21.4741 52.9245 21.9053 53.0979C22.3365 53.2713 21.9269 52.8594 22.0562 52.751C22.703 52.2091 23.393 51.7755 23.9535 51.1251C24.7728 50.193 25.3118 49.1741 26.1311 48.3286C27.4678 46.9412 28.8261 45.5538 30.0119 44.1013C30.1843 43.9062 30.6587 43.1041 30.788 43.0391C30.9174 42.974 30.9605 43.1258 30.9605 43.1041C30.9605 43.0824 30.9605 42.8873 31.0683 42.7572C31.1761 42.6272 32.0169 41.5649 32.1032 41.5216C32.1894 41.4782 32.2757 41.6083 32.2757 41.5866C32.3403 41.4999 32.3619 41.2181 32.6206 40.9796C34.5179 39.3103 36.523 37.9229 38.3124 36.1453C40.0372 34.4327 41.6758 32.5683 43.2712 30.769C44.6295 29.2298 45.9015 27.5606 47.0226 25.8696L47.0658 25.913ZM20.8489 54.6154C20.9351 54.442 21.1076 54.2685 21.0861 54.0518C20.4824 54.4636 20.353 55.114 19.9865 55.6776C18.542 57.9105 17.1406 60.1651 15.6961 62.3763C15.0062 63.4386 14.6828 64.0456 14.1869 65.1945C14.036 65.5847 13.6263 65.6931 14.2084 66.2351L14.8768 65.498C15.1786 63.3952 16.386 62.0078 17.4209 60.2952C17.8736 59.5581 18.3048 58.821 18.7791 58.1273C18.9301 57.9105 19.1672 57.542 19.3181 57.3686C19.4691 57.1951 19.5553 57.2819 19.5553 57.2602C19.5984 57.1951 19.4044 57.1084 19.3828 57.0217C19.3613 56.935 20.0296 56.1979 20.1374 56.0028C20.3961 55.5476 20.5686 55.049 20.8273 54.6154H20.8489Z" />
</svg>