<svg width="178" height="60" viewBox="0 0 178 60" fill="none" xmlns="http://www.w3.org/2000/svg">
<rect x="1.2375" y="1.10563" width="175.524" height="57.5248" rx="8.11247" fill="black"/>
<rect x="1.2375" y="1.10563" width="175.524" height="57.5248" rx="8.11247" stroke="#A6A6A6" stroke-width="1.47499"/>
<path d="M26.7625 29.074L12.4326 44.6267C12.434 44.6294 12.434 44.6336 12.4353 44.6363C12.8754 46.3251 14.3828 47.5679 16.1729 47.5679C16.8889 47.5679 17.5605 47.3697 18.1366 47.0229L18.1823 46.9954L34.3117 37.4779L26.7625 29.074Z" fill="#EA4335"/>
<path d="M41.259 26.4257L41.2456 26.416L34.2818 22.2884L26.4365 29.4275L34.3101 37.4763L41.2361 33.39C42.4501 32.7183 43.2752 31.4094 43.2752 29.9009C43.2752 28.4007 42.4623 27.0987 41.259 26.4257Z" fill="#FBBC04"/>
<path d="M12.4317 15.1082C12.3456 15.433 12.2998 15.7744 12.2998 16.1267V43.6096C12.2998 43.9619 12.3456 44.3032 12.433 44.6267L27.2542 29.4717L12.4317 15.1082Z" fill="#4285F4"/>
<path d="M26.8669 29.8679L34.2828 22.2856L18.1723 12.7338C17.5868 12.3745 16.9031 12.1681 16.1723 12.1681C14.3822 12.1681 12.8721 13.4137 12.432 15.1038C12.432 15.1052 12.4307 15.1066 12.4307 15.1079L26.8669 29.8679Z" fill="#34A853"/>
<path d="M71.6815 15.658C71.6815 16.8997 71.3131 17.8889 70.5764 18.6256C69.7486 19.503 68.6601 19.9418 67.3108 19.9418C66.0195 19.9418 64.9268 19.4948 64.0328 18.6008C63.1388 17.7068 62.6918 16.6058 62.6918 15.298C62.6918 13.9901 63.1388 12.8891 64.0328 11.9951C64.9268 11.1011 66.0195 10.6541 67.3108 10.6541C67.9648 10.6541 68.5815 10.77 69.1609 11.0018C69.7403 11.2336 70.2163 11.5605 70.5888 11.9827L69.7693 12.8022C69.4961 12.4711 69.1402 12.2145 68.7015 12.0324C68.271 11.842 67.8075 11.7468 67.3108 11.7468C66.3423 11.7468 65.5228 12.082 64.8523 12.7525C64.1901 13.4313 63.859 14.2798 63.859 15.298C63.859 16.3161 64.1901 17.1646 64.8523 17.8434C65.5228 18.5139 66.3423 18.8491 67.3108 18.8491C68.1965 18.8491 68.9333 18.6008 69.521 18.1041C70.1087 17.6074 70.4481 16.9245 70.5391 16.0554H67.3108V14.9875H71.6194C71.6608 15.2193 71.6815 15.4428 71.6815 15.658ZM78.2596 10.8528V11.9455H74.2118V14.764H77.8622V15.8319H74.2118V18.6504H78.2596V19.7431H73.0694V10.8528H78.2596ZM82.8288 11.9455V19.7431H81.6865V11.9455H79.2031V10.8528H85.3121V11.9455H82.8288ZM90.3752 19.7431H89.2329V10.8528H90.3752V19.7431ZM95.1969 11.9455V19.7431H94.0546V11.9455H91.5713V10.8528H97.6802V11.9455H95.1969ZM110.063 15.298C110.063 16.6141 109.624 17.7151 108.746 18.6008C107.861 19.4948 106.776 19.9418 105.493 19.9418C104.202 19.9418 103.117 19.4948 102.24 18.6008C101.363 17.7151 100.924 16.6141 100.924 15.298C100.924 13.9818 101.363 12.8808 102.24 11.9951C103.117 11.1011 104.202 10.6541 105.493 10.6541C106.785 10.6541 107.869 11.1053 108.746 12.0075C109.624 12.8933 110.063 13.9901 110.063 15.298ZM102.091 15.298C102.091 16.3244 102.414 17.1729 103.06 17.8434C103.713 18.5139 104.525 18.8491 105.493 18.8491C106.462 18.8491 107.269 18.5139 107.914 17.8434C108.568 17.1811 108.895 16.3327 108.895 15.298C108.895 14.2632 108.568 13.4148 107.914 12.7525C107.269 12.082 106.462 11.7468 105.493 11.7468C104.525 11.7468 103.713 12.082 103.06 12.7525C102.414 13.423 102.091 14.2715 102.091 15.298ZM112.553 19.7431H111.411V10.8528H112.801L117.122 17.7689H117.172L117.122 16.0554V10.8528H118.265V19.7431H117.073L112.553 12.4918H112.503L112.553 14.2053V19.7431Z" fill="white"/>
<path d="M138.438 40.9973H140.841V24.7554H138.438V40.9973ZM160.078 30.6059L157.324 37.6478H157.241L154.383 30.6059H151.795L156.081 40.4477L153.639 45.9227H156.143L162.749 30.6059H160.078ZM146.453 39.1523C145.665 39.1523 144.568 38.7561 144.568 37.7725C144.568 36.52 145.934 36.0393 147.115 36.0393C148.171 36.0393 148.669 36.2693 149.31 36.5824C149.123 38.0869 147.84 39.1523 146.453 39.1523ZM146.743 30.2512C145.003 30.2512 143.201 31.0242 142.457 32.7379L144.589 33.6357C145.045 32.7379 145.893 32.4443 146.784 32.4443C148.027 32.4443 149.29 33.1966 149.31 34.5348V34.7011C148.875 34.4503 147.944 34.0749 146.805 34.0749C144.507 34.0749 142.166 35.3494 142.166 37.7309C142.166 39.9046 144.051 41.3052 146.162 41.3052C147.778 41.3052 148.669 40.5737 149.228 39.7162H149.31V40.97H151.629V34.7427C151.629 31.8596 149.497 30.2512 146.743 30.2512ZM131.895 32.5833H128.478V27.016H131.895C133.691 27.016 134.711 28.5167 134.711 29.799C134.711 31.058 133.691 32.5833 131.895 32.5833ZM131.834 24.7554H126.077V40.9973H128.478V34.844H131.834C134.496 34.844 137.114 32.8977 137.114 29.799C137.114 26.7003 134.496 24.7554 131.834 24.7554ZM100.443 39.1549C98.7833 39.1549 97.3941 37.753 97.3941 35.8275C97.3941 33.8813 98.7833 32.4573 100.443 32.4573C102.082 32.4573 103.367 33.8813 103.367 35.8275C103.367 37.753 102.082 39.1549 100.443 39.1549ZM103.202 31.5153H103.118C102.579 30.867 101.542 30.2811 100.236 30.2811C97.4971 30.2811 94.9878 32.7081 94.9878 35.8275C94.9878 38.925 97.4971 41.3325 100.236 41.3325C101.542 41.3325 102.579 40.7465 103.118 40.0761H103.202V40.8725C103.202 42.9864 102.082 44.1168 100.277 44.1168C98.8039 44.1168 97.8911 43.0488 97.5177 42.1484L95.4229 43.028C96.0242 44.4935 97.622 46.293 100.277 46.293C103.098 46.293 105.483 44.6183 105.483 40.5373V30.615H103.202V31.5153ZM107.143 40.9973H109.549V24.7541H107.143V40.9973ZM113.095 35.6392C113.033 33.5045 114.734 32.4157 115.957 32.4157C116.913 32.4157 117.721 32.8964 117.99 33.5876L113.095 35.6392ZM120.563 33.7968C120.107 32.5625 118.716 30.2811 115.875 30.2811C113.054 30.2811 110.711 32.5197 110.711 35.8068C110.711 38.9042 113.033 41.3325 116.144 41.3325C118.655 41.3325 120.107 39.7838 120.708 38.8834L118.841 37.627C118.219 38.5482 117.368 39.1549 116.144 39.1549C114.921 39.1549 114.049 38.5898 113.489 37.4815L120.811 34.4244L120.563 33.7968ZM62.2285 31.9766V34.3204H67.7866C67.6205 35.6392 67.1854 36.6019 66.5223 37.271C65.7125 38.0882 64.4468 38.9886 62.2285 38.9886C58.805 38.9886 56.1296 36.2043 56.1296 32.7509C56.1296 29.2962 58.805 26.5132 62.2285 26.5132C64.0748 26.5132 65.4228 27.246 66.418 28.188L68.057 26.534C66.6665 25.1945 64.8215 24.1681 62.2285 24.1681C57.5407 24.1681 53.5996 28.0204 53.5996 32.7509C53.5996 37.4815 57.5407 41.3325 62.2285 41.3325C64.7584 41.3325 66.6665 40.4945 68.16 38.925C69.696 37.3763 70.1724 35.2 70.1724 33.4408C70.1724 32.8964 70.1312 32.3949 70.0475 31.9766H62.2285ZM76.4927 39.1549C74.8331 39.1549 73.4014 37.7738 73.4014 35.8068C73.4014 33.8176 74.8331 32.4573 76.4927 32.4573C78.151 32.4573 79.5828 33.8176 79.5828 35.8068C79.5828 37.7738 78.151 39.1549 76.4927 39.1549ZM76.4927 30.2811C73.4632 30.2811 70.9951 32.6041 70.9951 35.8068C70.9951 38.9886 73.4632 41.3325 76.4927 41.3325C79.521 41.3325 81.9891 38.9886 81.9891 35.8068C81.9891 32.6041 79.521 30.2811 76.4927 30.2811ZM88.4833 39.1549C86.8237 39.1549 85.392 37.7738 85.392 35.8068C85.392 33.8176 86.8237 32.4573 88.4833 32.4573C90.1429 32.4573 91.5733 33.8176 91.5733 35.8068C91.5733 37.7738 90.1429 39.1549 88.4833 39.1549ZM88.4833 30.2811C85.4551 30.2811 82.9869 32.6041 82.9869 35.8068C82.9869 38.9886 85.4551 41.3325 88.4833 41.3325C91.5115 41.3325 93.9796 38.9886 93.9796 35.8068C93.9796 32.6041 91.5115 30.2811 88.4833 30.2811Z" fill="white"/>
</svg>
