<svg width="46" height="71" viewBox="0 0 46 71" fill="none" xmlns="http://www.w3.org/2000/svg">
<g clip-path="url(#clip0_224_742)">
<path d="M11.1334 65.8859C10.6302 65.2439 10.5253 64.6874 9.74959 64.0026C8.09326 62.5474 5.87083 61.4988 4.1516 60.065C3.56454 59.5942 2.62106 58.674 2.11787 58.1176C1.42598 57.3472 0.188971 54.2014 0.0631734 53.1099C-0.691612 46.3047 5.78696 42.6025 11.5946 44.6997C11.951 44.8281 13.8799 45.7697 14.0267 45.7697C14.4041 45.7269 14.3412 44.8281 14.3831 44.6141C14.6557 43.6297 15.5363 42.9663 15.9346 42.1103C16.1024 41.7679 16.1024 41.4254 16.354 41.0402C16.8152 40.2912 17.7168 39.7348 18.5764 40.0986C18.9957 40.2698 19.1425 40.6122 19.4989 40.8048C19.6666 40.8904 19.8553 40.8476 20.0021 40.9332C20.1489 41.0188 20.5263 41.5538 20.7569 41.297C20.9875 41.0402 21.5326 39.6278 21.7842 39.1356C22.2036 38.3224 22.7696 37.5734 23.1261 36.7174C23.3986 36.0754 23.5454 35.2408 23.8389 34.5988C24.3421 33.4646 25.2227 32.309 25.8098 31.1962C27.7806 27.5367 29.3321 23.6847 31.4706 20.1109C31.8061 19.5545 31.89 19.4475 31.4078 19.0195C30.5481 18.2062 28.6612 17.179 27.5709 16.6012C27.0468 16.323 26.1871 16.0448 25.7678 15.7238C25.3485 15.4028 25.663 15.0818 25.7678 14.7822C26.1662 13.7122 26.8581 12.7278 27.4032 11.722C27.9483 10.7162 28.2628 9.62478 28.5354 9.64618C28.8079 9.66758 29.4789 10.0742 29.6047 10.0742C29.9611 9.73178 30.0869 9.23957 30.3175 8.81157C30.5481 8.38357 30.9884 7.97696 30.8626 7.54896C30.7368 7.12095 29.9401 6.97115 29.982 6.45755C30.024 6.13655 30.4014 5.13074 30.5481 4.78834C31.1142 3.41872 31.9529 2.17751 32.6028 0.850702C32.7706 0.6153 33.0222 0.722301 33.2528 0.807901C34.9091 1.42851 36.1042 2.66972 37.5509 3.41872C38.075 3.67553 38.7879 3.69693 39.312 3.95373C39.7314 3.91093 39.8572 3.41872 40.0668 3.20472C41.3038 1.94211 43.5472 1.44991 44.91 2.84092C47.3002 5.30194 45.2036 7.91276 44.0923 10.4166C39.962 19.6401 35.4542 28.6709 31.0723 37.766C29.7933 40.0558 28.5773 42.3885 27.4242 44.7211C28.0531 44.9351 28.5983 45.3631 29.1644 45.6627C29.7304 45.9623 29.5837 45.7911 29.7514 45.8767C30.8207 46.4545 30.8417 47.7599 30.3804 48.7657C30.2756 49.0011 30.0869 49.1509 29.982 49.3649C29.4579 50.4777 28.9547 51.6119 28.2628 52.6391C28.5983 52.8317 28.9966 52.9601 29.3321 53.1528C30.653 53.9446 31.89 54.6294 32.9173 55.8064C36.3558 59.6584 36.6912 65.5863 32.3303 68.9461C28.5563 71.8565 23.5873 70.6795 19.5408 69.0531C17.9474 68.4111 16.6475 67.5123 14.8863 67.3411C13.1252 67.1699 13.4816 67.4267 13.1881 67.3197C12.622 67.0843 11.5108 66.3995 11.1334 65.9073V65.8859ZM14.5299 64.9871C17.7168 66.4851 23.2728 69.3527 26.7113 69.3955C27.9273 69.3955 30.3385 68.6679 31.2191 67.8333C35.4962 63.81 34.4479 58.0748 29.5837 55.2714C25.663 53.0029 21.2601 51.0983 17.2136 49.0439C15.2847 48.0595 13.4606 46.8825 11.4269 46.1121C8.26099 44.9137 4.25643 45.6199 2.2856 48.6373C-0.188422 52.4679 1.25825 56.9834 4.78058 59.4658C7.73683 61.5416 11.2801 63.4676 14.5299 65.0085V64.9871ZM26.4597 52.0613L27.6758 52.4679C27.6967 52.4679 27.8225 52.4679 27.8225 52.3395C27.8644 52.0613 27.8225 51.8259 27.9064 51.5049C28.0322 50.9913 28.2418 50.2851 28.4096 49.7929C28.5773 49.3007 29.2902 47.8027 29.2692 47.5673C29.2482 47.3319 28.6402 47.0109 28.4515 46.9039C28.0112 46.6471 27.1726 46.1763 26.7323 45.9837C26.4387 45.8553 25.9146 45.9195 25.6001 45.8553C24.2163 45.5771 22.6229 44.1433 21.3649 43.4371C20.5472 42.9877 19.415 42.5811 18.5345 42.2815C17.6539 41.9819 17.8216 42.1103 17.4442 42.0247C16.3959 43.2659 15.725 44.7853 14.8863 46.1977C17.5281 47.7385 20.2956 49.0225 23.0422 50.3707C25.7888 51.7189 23.3986 50.6489 23.6293 50.7559C24.5727 51.2267 25.5162 51.5905 26.4597 52.0399V52.0613ZM26.921 44.4857C27.0677 44.0149 27.3193 43.6083 27.508 43.1803C28.9337 39.9916 30.2965 36.6104 31.7432 33.3576C34.9301 26.2099 38.683 19.2977 41.7441 12.1286C42.3102 10.8232 42.8134 9.41078 43.4005 8.10536C43.8827 7.05675 44.8681 5.87974 44.4488 4.65993C43.8407 2.90512 41.6603 3.01212 40.7797 4.44593C39.8991 5.87974 38.5153 8.70457 37.5928 10.6092C36.6493 12.578 35.9574 14.6966 35.0349 16.6868C34.7204 17.3502 34.1753 18.0136 33.8189 18.6557C33.0641 20.0681 32.6238 21.6517 31.869 23.0427C30.3804 25.7819 28.7241 28.3927 27.3613 31.2176C25.9985 34.021 24.1534 36.7602 22.7277 39.5422C22.3713 40.227 22.1616 41.083 21.7004 41.7037C21.7633 42.2387 22.3713 42.0461 22.7906 42.2815C23.2099 42.5169 23.776 43.1375 24.3002 43.4157C25.055 43.8223 26.2081 43.8865 26.921 44.5071V44.4857ZM30.9884 17.286C31.3239 17.5 31.7851 17.9494 32.1625 17.9922C32.5399 18.035 32.5819 17.9494 32.6028 17.928C32.6867 17.821 32.9593 17.3288 33.0431 17.179C33.4624 16.3872 33.714 15.467 34.1334 14.6538C35.4962 11.936 36.9638 9.26097 38.096 6.41475C38.4314 5.55874 39.0604 5.13074 37.9283 4.59573C36.7961 4.06073 36.9219 5.17354 36.6074 5.68714C36.0203 6.65015 35.1397 7.80576 34.7414 8.83297C33.9866 10.8232 32.9593 12.6208 32.1416 14.5896C31.9948 14.932 31.9319 15.4242 31.7642 15.788C31.5335 16.3444 31.1981 16.7724 30.9675 17.3074L30.9884 17.286ZM26.6903 15.1032C27.3613 15.1888 27.8435 15.6596 28.3676 15.9378C28.8918 16.216 29.8353 16.5584 30.4223 17.0292C30.7159 16.0234 31.282 15.1032 31.6803 14.1402C31.9319 13.541 32.1416 12.7278 32.4141 12.1286C33.4834 9.81738 34.8672 7.54896 35.7897 5.17354C35.9155 4.85254 36.251 4.01793 35.9574 3.78253L33.0431 2.24171C32.6448 2.11331 32.0996 3.78253 31.9319 4.10353C31.6803 4.61713 31.2191 5.15214 31.0933 5.72994C30.9675 6.30775 31.869 6.71435 31.89 7.24936C31.89 7.89136 30.1707 11.508 29.6675 11.722C29.1644 11.936 29.2273 11.5722 29.0176 11.5508C28.8079 11.5294 28.5563 11.6792 28.3047 11.615L26.6694 15.1032H26.6903Z" fill="#DE6300"/>
<path d="M16.0179 62.4404C15.8712 62.1836 15.7034 61.5844 15.347 61.4988C14.9906 61.4132 14.9696 61.6486 14.8648 61.67C12.831 61.9268 11.4682 61.6058 9.62321 60.7926C8.74263 60.4074 7.54755 59.8938 6.72986 59.4016C5.38802 58.5884 3.62685 56.3841 3.08173 54.9075C2.11728 52.2539 3.87845 49.1081 6.22667 47.9097C7.19112 47.4175 10.5248 47.3747 11.5311 47.7385C12.3069 48.0167 13.1665 48.6159 13.9213 48.9583C15.5776 49.7287 17.2969 50.2209 18.5548 51.6547C19.8128 53.0885 18.8693 52.2539 19.058 52.4893C20.0644 53.6021 21.5321 52.8103 22.7062 53.1527C24.2157 53.5807 27.5913 55.2713 28.9751 56.1059C30.4427 56.9834 31.1346 58.246 31.7217 59.8296C32.4764 61.9054 31.1556 65.094 29.4573 66.3566C29.1009 66.6134 27.9477 67.0414 27.5074 67.1484C25.935 67.555 23.6916 67.2554 22.0772 66.7846C20.4628 66.3138 19.6241 65.9072 18.7016 65.3936C17.213 64.5804 16.8146 63.8742 16.0179 62.4618V62.4404ZM3.75265 53.4951C3.87845 53.9017 3.87845 53.6235 3.94135 54.2013C4.04618 55.0787 4.17198 55.2499 4.63324 55.9561C5.09449 56.6624 5.95411 57.6896 6.7718 58.3316C8.1975 59.4658 11.7198 60.8996 13.5439 61.0494C14.2777 61.0922 15.0115 60.707 15.7454 60.9852C16.7937 61.3918 16.6259 61.884 17.1501 62.6758C18.1565 64.1952 19.9596 65.0512 21.6369 65.6718C24.1948 66.6134 27.801 66.9558 29.646 64.452C31.8684 61.4132 30.3169 57.9464 27.2978 56.3627C26.2495 55.8063 24.5093 55.2071 23.5867 54.5865C22.6642 53.9659 23.419 54.2869 23.2094 54.1799C21.7836 53.5379 20.2321 54.1371 19.0161 53.6021C17.7791 53.0457 17.8839 51.9971 16.8775 51.2909C15.4938 50.3065 12.0553 48.9155 10.378 48.7015C8.28137 48.4233 6.54117 48.9369 4.88483 50.2423C3.2285 51.5477 3.94135 51.1411 3.81555 51.7831C3.77362 51.9329 3.71072 53.4309 3.73169 53.5165L3.75265 53.4951Z" fill="#DE6300"/>
</g>
<defs>
<clipPath id="clip0_224_742">
<rect width="46" height="70" fill="white" transform="translate(0 0.700928)"/>
</clipPath>
</defs>
</svg>
